<svg id="ad59321c-8cd7-4e83-9bc0-bb26a31925bc" data-name="Calque 1" xmlns="http://www.w3.org/2000/svg" viewBox="0 0 176.35 1146.92"><g opacity="0.35"><path d="M189.08,605.7c-.15,0-15.55-.68-37-7.38l-.86-.27,3.4-2.53-4.44,2.19-.19-.05A189.58,189.58,0,0,1,86.94,563l-.45-.37,3.6-3a11.69,11.69,0,0,1-4.78,1.83c-1.83,0-2.83-1.39-3.8-2.75a11.23,11.23,0,0,0-1.38-1.7l-1.3-1.21-.7-.67,4.26-2.71c-2.2.94-4.2,1.56-5.45,1.44-2-.21-3-1.84-3.93-3.42a12.56,12.56,0,0,0-1.33-1.91l-.44-.48,5.82-3.41-7.61,1.41-.14-.17a147.54,147.54,0,0,1-16.5-23.31l-.41-.71,6.72-1.33-7.4.11-.11-.2A175.41,175.41,0,0,1,35.5,479.55l-.14-.55,6.55-2.39-7.2-.24-.06-.28c-4.82-20.21-4.86-35.07-4.86-35.21v-.62l.62-.07a28.3,28.3,0,0,1,10.69,1l.24.07,1.12,9.92,2.87-8.51.56.24a19,19,0,0,0,2,.67c1.9.53,4,1.14,5,3.07,1.48,3.07.79,11.36,0,17.55l4.3-14.78.62.45c1.54,1.11,3.13,2.33,4.72,3.62l.18.15-1.36,6.74,2.7-5.63.5.42c1.52,1.29,3.09,2.68,4.79,4.24l.21.19-6.12,16.14,8.43-14,.44.42C80,469.55,87.83,478,96.08,487c19.18,20.88,39,42.48,60.5,52.82a81.31,81.31,0,0,1,13.8,8.32l.22.16L166.66,565l6-15,.54.46c.89.75,1.8,1.47,2.69,2.18,3.78,3,7.36,5.83,8.2,10.13.53,2.7-.25,8.52-1.16,13.69l3.18-10.34.56,1.1a49.3,49.3,0,0,1,4.44,13.17l0,.16-2.55,6.27,2.86-4.48.15,1.26a50.92,50.92,0,0,1-1.91,21.64l-.18.51Zm-3.4-12.56h0l4.39-12.48A48.37,48.37,0,0,0,186.28,569L181,586.3h0c0-.18,2.26-18.16,2.11-23.1-.12-4.08-4.25-6.75-7.93-9.67-.71-.56-1.43-1.13-2.15-1.73l-9.41,23.33h0l5.82-26.21a81.3,81.3,0,0,0-13.47-8.09c-21.61-10.4-41.49-32-60.72-53-8.08-8.79-15.72-17.11-23.29-24.38l-9.88,15.62,6.29-19c-1.43-1.31-2.77-2.49-4.06-3.6l-5.47,11.4,2.77-13.65c-1.31-1.05-2.61-2.06-3.88-3L51.78,471.6h0c0-.19,2.45-19.51.15-24.29-.79-1.63-2.67-2.17-4.5-2.68-.53-.15-1.07-.31-1.57-.48l-4,11.76-1.54-13.73a27.24,27.24,0,0,0-9.49-1,171.81,171.81,0,0,0,4.76,34.08l11.73.39-10.67,3.89a174.41,174.41,0,0,0,15.78,40l13.75.31h0l-12,2.71A146.88,146.88,0,0,0,70,544.93l12.42-2.29-9.52,5.58a16.34,16.34,0,0,1,1,1.54c.91,1.49,1.77,2.89,3.37,3.06,3.07.31,13-5,16.42-7.12l.14.13-14,9.36,1,1A10.49,10.49,0,0,1,82.43,558c.9,1.26,1.74,2.45,3.15,2.44,3,0,11.78-5.9,14.79-8.37h0l-12.2,10.42a188.91,188.91,0,0,0,62.21,34.07l9.64-4.25-6.5,5.25c18.75,5.76,32.67,6.87,35.39,7a51.82,51.82,0,0,0,1.81-19.32Z" fill="#fff"/><path d="M65.35,504.88c-6.6-4.74-13.86-6.24-22.88-4.75l-.33.05L42,499.9a183.54,183.54,0,0,1-6.53-20.35l-.14-.55,6.55-2.39-7.2-.24-.06-.28c-4.82-20.21-4.86-35.07-4.86-35.21v-.62l.62-.07a28.3,28.3,0,0,1,10.69,1l.24.07,1.12,9.92,2.87-8.51.56.24a19,19,0,0,0,2,.67c1.9.53,4,1.14,5,3.07,1.48,3.07.79,11.36,0,17.55l4.3-14.78.62.45c1.54,1.11,3.13,2.33,4.72,3.62l.18.15-1.36,6.74,2.7-5.63.5.42c1.52,1.29,3.09,2.68,4.79,4.24l.21.19-6.12,16.14,8.43-14,.44.42c1.77,1.7,3.66,3.56,5.77,5.7l.23.24-.22.38c-1.28,2.2-2.53,3.63-3.91,5.7-5.75,8.66-11.35,17.56-8,29.95l.47,1.72Zm6.58-41.41-7.36,10.41,5-14.29c-1.42-1.34-4-2-5.29-3.09l-5.47,11.4,2.77-13.65c-1.31-1.05-2.61-2.06-3.88-3L51.78,471.6h0c0-.19,2.45-19.51.15-24.29-.79-1.63-2.67-2.17-4.5-2.68-.53-.15-1.07-.31-1.57-.48l-4,11.76-1.54-13.73a27.51,27.51,0,0,0-9.49-1,172.64,172.64,0,0,0,4.76,34.08l11.73.39-10.67,3.89A184,184,0,0,0,42.92,499c8.53-1.36,15.54-.07,21.89,4.05-2.63-12,3.14-21.14,8.55-29.31,1.29-1.93,2.43-3.22,3.65-5.25C75.17,466.63,73.51,465,71.93,463.47Z" fill="#fff"/><path d="M151.91,582.32c7.53,5.34,15.21,10.49,22.94,15.56q5.81,3.81,11.66,7.53c3.9,2.49,8.81,5.57,12.82,7.92s9.72,6.35,14,8.52c.54-1,1.3-2.38,1.86-3.35-3.77-2.61-9.48-6.46-13.33-9s-8.66-5.4-12.57-7.87-7.79-4.95-11.66-7.46q-11.61-7.53-23-15.39t-22.43-16.07a498.43,498.43,0,0,1-42.47-35,262.51,262.51,0,0,1-19.18-19.72c-3-3.48-5.89-7.08-8.55-10.86-1.33-1.9-2.63-3.81-3.82-5.81A39.26,39.26,0,0,1,55,485.1l-.51.27A39.4,39.4,0,0,0,57.4,492C58.52,494,59.71,496.06,61,498c2.55,3.92,5.31,7.66,8.2,11.29s5.9,7.13,9,10.55,6.3,6.74,9.58,10a447.52,447.52,0,0,0,41.83,36.09Q140.58,574.35,151.91,582.32Z" fill="#fff"/><path d="M115.88,518.34c-.85,4-1.67,7.93-2.26,11.93s-1,8-1.34,12.09a50.48,50.48,0,0,1,3.6-24Z" fill="#fff"/><path d="M179,556.14l-.26-.25q-.84,1.56-1.56,3.18a40.61,40.61,0,0,0-2.94,9.73c1.18-3.19,2.35-6.33,3.72-9.4.43-1,.88-2,1.34-2.95Z" fill="#fff"/><path d="M78.59,489.74c-.61,2.72-1.2,5.41-1.63,8.13s-.74,5.46-1,8.23a34.9,34.9,0,0,1,2.65-16.36Z" fill="#fff"/><path d="M75.17,487.18c-.61,2.72-1.2,5.41-1.64,8.14s-.74,5.46-1,8.23a34.81,34.81,0,0,1,2.66-16.37Z" fill="#fff"/><path d="M117.23,560.18c-3.2.74-6.35,1.49-9.44,2.4s-6.11,2-9.16,3a38.6,38.6,0,0,1,8.87-3.76A42.1,42.1,0,0,1,117.23,560.18Z" fill="#fff"/><path d="M144.44,579.55c-2.68.77-5.32,1.54-7.92,2.47s-5.15,2-7.71,3.05a32.38,32.38,0,0,1,7.48-3.7A33.15,33.15,0,0,1,144.44,579.55Z" fill="#fff"/><path d="M157.33,582.66c-1.42.38-2.82.79-4.21,1.25a56,56,0,0,0-12.85,6.18c4.41-1.8,8.78-3.55,13.27-5.05q2.28-.78,4.59-1.47C157.86,583.27,157.59,583,157.33,582.66Z" fill="#fff"/><path d="M41.71,487.58a35.25,35.25,0,0,0-3.84.29c.08.18.16.36.25.54,1.2-.07,2.4-.12,3.6-.14,2.76-.07,5.51,0,8.3.15A32.68,32.68,0,0,0,41.71,487.58Z" fill="#fff"/><path d="M101.24,494.47c-4.31,14.8-7.82,30.5-2.83,44.06.08.21.51.23.59.44-5-13.57-1.48-29.26,2.83-44.06,0-.12-.62-.34-.59-.44Z" fill="#fff"/><path d="M94.87,487.59c-4.35,15.09-7.86,31.07-2.73,44.86.08.22.51.23.59.44-5.14-13.79-1.62-29.78,2.73-44.86,0-.12-.62-.33-.59-.44Z" fill="#fff"/><path d="M140.79,531.28a92.63,92.63,0,0,0-7.7,35.17c0,.17.7.35.7.51a92.48,92.48,0,0,1,7.7-35.17c0-.06-.72-.46-.7-.51Z" fill="#fff"/><path d="M141.08,572.11s-.69-.53-.7-.52l.7.52Z" fill="#fff"/><path d="M141.13,572.11a98.51,98.51,0,0,1,5-25.55l0-.09c-4.78,8.27-5.2,16.39-5.74,25.12,0,.16.7.37.69.52Z" fill="#fff"/><path d="M157.44,541.08a83.13,83.13,0,0,0-6.34,25.62c0,.16.71.37.69.52a83.07,83.07,0,0,1,6.35-25.62c0-.07-.72-.46-.7-.52Z" fill="#fff"/><path d="M100.64,572.9a65.2,65.2,0,0,1,24.92-9c-.2,0-.49-.55-.69-.52a65.48,65.48,0,0,0-24.93,9c.09,0,.6.58.7.52Z" fill="#fff"/><path d="M117.07,576.28a58.22,58.22,0,0,1,24-6c-.22,0-.46-.53-.69-.52-8.38.29-15.3.55-23.27,6.56.12,0-.12.06,0,0Z" fill="#fff"/><path d="M122.16,515.51c-3.35,9.6-6.63,26.86-5.73,37,0,.2.68.33.69.52-.9-10.13,2.38-27.39,5.73-37,0-.08-.72-.44-.69-.51Z" fill="#fff"/><path d="M60.75,533.37A58.05,58.05,0,0,1,89.23,529c-.24,0-.44-.49-.69-.52a58,58,0,0,0-28.48,4.36c.13-.05.55.58.69.52Z" fill="#fff"/><path d="M88.62,480.34s-.69-.52-.7-.51.69.52.7.51Z" fill="#fff"/><path d="M86.6,478.26c-7.44,12.5-9.76,26.82-7.58,41.13,0,.2.66.32.69.51-2.18-14.31.14-28.63,7.58-41.13,0,0-.71-.49-.69-.51Z" fill="#fff"/><path d="M192.29,1005.09l-.29.31a39.63,39.63,0,0,1-14.35,8.93l-.93.34,2.1-3.56-3.46,4-.12,0a38.51,38.51,0,0,1-10.7,1.55h-1l6.06-5.85c-3.27,2.46-7,5-9.1,5.62-3.28.93-6.5-.55-9.92-2.13-.79-.36-1.62-.74-2.45-1.09l-.51-.22,8.27-9.46-10.17,8.59-.19-.1a63.51,63.51,0,0,1-10.63-6.65C120.21,994.11,98.23,987.94,77,982c-9.14-2.57-17.76-5-25.61-7.76l-.44-.16,6.74-10.77-9,9.93-.21-.08c-1.68-.63-3.19-1.23-4.62-1.83l-.47-.2,3-3.86-4.2,3.32-.17-.07c-1.46-.66-2.86-1.33-4.18-2l-.53-.27L46,960c-4,2.72-9.53,6.12-12.18,6.17-1.67,0-2.84-1.24-3.88-2.36a13.35,13.35,0,0,0-1.19-1.19l-.36-.31,4.89-5L26,960.07l-.13-.14a22.09,22.09,0,0,1-4.46-7.08l-.17-.45.43-.22a131.8,131.8,0,0,1,26.16-9l.22,0L50.71,948l-.64-5.39.43-.09a136,136,0,0,1,34.09-3.22h.17l2.54,5.18-1.45-5.13.64,0a114.12,114.12,0,0,1,22,3.26l.17,0,1.7,5.77.32-5.24.48.14a10.56,10.56,0,0,0,1.8.25c1.43.11,2.91.23,3.75,1.53a10.21,10.21,0,0,1,.92,4.28l.38-3.9.71.25,1.3.47a8,8,0,0,0,1.67.36c1.28.2,2.61.4,3.25,1.67a9.26,9.26,0,0,1,.4,4l.79-3.55.42.18a147.46,147.46,0,0,1,46.24,31.61l.11.11,0,3.85.56-3.25.49.51c12.19,12.51,18.07,23,18.13,23.06Zm-13.8,8a40.26,40.26,0,0,0,12.78-8.05A125.82,125.82,0,0,0,173.93,983l-1.36,6.36-.43-8.19a147,147,0,0,0-45.55-31.2l-2.94,12.14h0c.66-3,1.63-11.17.61-13.22-.49-1-1.61-1.15-2.8-1.33a8.68,8.68,0,0,1-1.78-.39l-1.05-.38-1.58,13-.14-.06c.29-3.15.47-11.88-.83-13.9-.68-1-2-1.15-3.31-1.26a13.3,13.3,0,0,1-1.43-.16l-.52,8.57L108,943.52A113.79,113.79,0,0,0,87,940.35l2.35,9.31h0l-5.06-9.43a135.1,135.1,0,0,0-33.33,3.12L52,952.12l-4.4-8a134.62,134.62,0,0,0-25.33,8.69,21.1,21.1,0,0,0,4,6.25l10.08-3.76-6.77,6.89c.3.29.59.61.88.92,1,1.09,2,2.21,3.45,2.18,4.13-.08,16.69-8.56,16.81-8.65h0l-12,11.27c1.1.56,2.25,1.11,3.44,1.64l8.51-6.72-6,7.81c1.22.5,2.51,1,3.92,1.55l11-11-7.36,12.36c7.7,2.69,16.17,5.07,25.11,7.58,21.3,6,43.32,12.18,58.14,23.52a63,63,0,0,0,10.36,6.5l16.15-13.26h0L149,1012.57c.67.29,1.33.59,2,.89,3.32,1.53,6.63,3.45,9.51,2.1,3.47-1.64,15.18-9.5,15.29-9.59h0l-10.14,9.77a37.23,37.23,0,0,0,9.42-1.47l7.13-7.44h0Z" fill="#fff"/><path d="M79.74,955l-1.36.28c-9.8,2-14,9-18,16.06-1,1.68-1.51,3.05-2.59,4.72l-.18.29-.25-.09c-2.23-.71-4.18-1.36-6-2l-.44-.16,6.74-10.77-9,9.93-.21-.08c-1.68-.63-3.19-1.23-4.62-1.83l-.47-.2,3-3.86-4.2,3.32-.17-.07c-1.46-.66-2.86-1.33-4.18-2l-.53-.27L46,960c-4,2.72-9.53,6.12-12.18,6.17-1.67,0-2.84-1.24-3.88-2.36a13.35,13.35,0,0,0-1.19-1.19l-.36-.31,4.89-5L26,960.07l-.13-.14a22.09,22.09,0,0,1-4.46-7.08l-.17-.45.43-.22a131.8,131.8,0,0,1,26.16-9l.22,0L50.71,948l-.64-5.39.43-.09a144.09,144.09,0,0,1,16.42-2.63l.24,0,.08.25c2.13,6.78,5.74,11.3,11.34,14.21ZM57.42,975.24c1-1.55,1.48-2.8,2.37-4.38,3.76-6.63,8.08-13.85,17.33-16.24-5.09-3-8.45-7.38-10.51-13.77a142.32,142.32,0,0,0-15.68,2.5L52,952.12l-4.4-8a135.11,135.11,0,0,0-25.33,8.69,21.1,21.1,0,0,0,4,6.25l10.08-3.76-6.77,6.89c.3.29.59.61.88.92,1,1.09,2,2.21,3.45,2.18,4.13-.08,16.69-8.56,16.81-8.65h0l-12,11.27c1.1.56,2.25,1.11,3.44,1.64l8.51-6.72-6,7.81c1.22.5,2.57,2.07,4,2.58l8.16-8.49-4.63,8.77C53.76,974.05,55.49,974.62,57.42,975.24Z" fill="#fff"/><path d="M162.8,987.19c6.36,3.36,12.63,6.88,18.88,10.46q4.68,2.69,9.33,5.44c3.09,1.84,7,4.16,10,6.11s7.83,4.52,10.83,6.7c-.49.72-1.2,1.74-1.67,2.47-3.14-1.7-7.82-4.31-10.91-6.11s-6.79-4.11-9.88-6-6.18-3.67-9.28-5.47c-6.21-3.61-12.48-7.1-18.77-10.53s-12.64-6.75-19-9.92a386.55,386.55,0,0,0-39.24-17.17,206.8,206.8,0,0,0-20.44-6.39c-3.47-.85-7-1.59-10.54-2.11-1.79-.25-3.57-.48-5.38-.61a31.23,31.23,0,0,0-5.47,0v-.45a31,31,0,0,1,5.58-.3c1.84,0,3.67.16,5.48.36,3.62.38,7.19,1,10.72,1.71S90,957,93.5,958s6.9,2,10.31,3.14a347.91,347.91,0,0,1,39.77,16.35Q153.27,982.15,162.8,987.19Z" fill="#fff"/><path d="M105.7,984.69c2.47-2,4.92-4,7.5-5.76s5.22-3.51,7.92-5.19a37.89,37.89,0,0,0-8.4,4.55A37.48,37.48,0,0,0,105.7,984.69Z" fill="#fff"/><path d="M154.17,1015.23l-.27-.1c.52-.75,1.08-1.48,1.66-2.19a31.52,31.52,0,0,1,5.72-5.47c-1.8,1.93-3.57,3.86-5.22,5.89-.54.64-1.06,1.3-1.57,2Z" fill="#fff"/><path d="M72.73,968.87c1.68-1.38,3.33-2.74,5.07-4s3.54-2.43,5.36-3.6a25.47,25.47,0,0,0-5.67,3.17A26,26,0,0,0,72.73,968.87Z" fill="#fff"/><path d="M69.76,967.39c1.67-1.38,3.33-2.74,5.07-4s3.53-2.43,5.36-3.6a27,27,0,0,0-10.43,7.6Z" fill="#fff"/><path d="M135.23,970.9c-.61-2.47-1.2-4.92-1.65-7.39s-.79-4.93-1.11-7.43a30.05,30.05,0,0,0,.51,7.48A32.74,32.74,0,0,0,135.23,970.9Z" fill="#fff"/><path d="M158.25,983c-.41-2.13-.8-4.23-1.07-6.36s-.45-4.27-.6-6.43A27,27,0,0,0,158.25,983Z" fill="#fff"/><path d="M165,990.84c-.24-1.12-.45-2.24-.62-3.36a43.91,43.91,0,0,1-.23-11.1c.31,3.7.62,7.35,1.16,11,.17,1.24.38,2.47.6,3.7Z" fill="#fff"/><path d="M58.26,944a27.69,27.69,0,0,1-1.15-2.76l.46,0c.38.86.76,1.71,1.17,2.55.93,1.94,2,3.81,3,5.71A25.77,25.77,0,0,1,58.26,944Z" fill="#fff"/><path d="M84,982.93c8.76-8.2,18.42-16.16,29.59-17.47.17,0,.34.27.51.25C102.92,967,93.26,975,84.5,983.18c-.07.06-.45-.31-.51-.25Z" fill="#fff"/><path d="M77,980.92c8.94-8.32,18.81-16.39,30.19-17.67.17,0,.34.27.51.25-11.39,1.29-21.25,9.35-30.19,17.68-.07.06-.45-.31-.51-.26Z" fill="#fff"/><path d="M123.46,997.44a71.88,71.88,0,0,1,21.7-17.72c.12-.07.49.36.6.3a71.88,71.88,0,0,0-21.7,17.72s-.58-.34-.6-.3Z" fill="#fff"/><path d="M151.9,983.27l-.6-.3.6.3Z" fill="#fff"/><path d="M151.92,983.31a76.26,76.26,0,0,0-16,12.47l0,.05c4.06-6.23,9.55-9.38,15.42-12.82.11-.07.5.35.6.3Z" fill="#fff"/><path d="M136.12,1005.54a64.56,64.56,0,0,1,15.55-13.41c.11-.07.51.36.61.3a64.6,64.6,0,0,0-15.56,13.41s-.57-.33-.6-.3Z" fill="#fff"/><path d="M138.22,954.92a51,51,0,0,0,2.51,20.47c0-.15-.56-.15-.61-.3a50.79,50.79,0,0,1-2.5-20.47c0,.07.61.21.6.3Z" fill="#fff"/><path d="M146.35,965.14a45.37,45.37,0,0,0,4.24,18.75c-.08-.15-.53-.14-.61-.3-2.74-5.92-5-10.81-3.63-18.45Z" fill="#fff"/><path d="M106,990.05c5.49-5.71,16.32-14.06,23.67-17,.14,0,.47.36.6.3-7.35,2.94-18.18,11.29-23.67,17,0,0-.55-.35-.6-.3Z" fill="#fff"/><path d="M96.75,941.13a45.11,45.11,0,0,0,7,21.31c-.1-.16-.5-.14-.6-.3a45.11,45.11,0,0,1-7-21.31c0,.11.59.19.6.3Z" fill="#fff"/><path d="M69.74,979.13s-.61-.29-.6-.3l.6.3Z" fill="#fff"/><path d="M67.58,978.46a47.8,47.8,0,0,1,25.89-19.73c.15-.05.45.35.6.3a47.8,47.8,0,0,0-25.89,19.73s-.59-.31-.6-.3Z" fill="#fff"/><path d="M98.17,683.66l-.1.16h-.19a75.79,75.79,0,0,1-33.74-7l-.66-.29,8.92-4.81-14,2.28-.1-.06c-23.39-12.64-37.46-33.26-37.6-33.46l-.33-.49L21,640a86,86,0,0,0,16.94-4.31A58.78,58.78,0,0,0,45,632.35,67,67,0,0,1,54.61,628l.11,0,14.21,4.5-9.77-6,.73-.24a77.9,77.9,0,0,0,7.36-3c5.36-2.44,10.9-5,16.55-4.37,3.34.35,9,3.63,13.21,6.32l-8.19-7.77.61-.16a17,17,0,0,0,1.88-.69,7.65,7.65,0,0,1,4.07-.86,13.06,13.06,0,0,1,4.12,2.39l-2.21-2.89.53-.13c3-.73,5.78-1.36,8.31-1.86a171.3,171.3,0,0,1,29.06-2.6h.06l.06,0c5.76,2,12.07,4.12,15.81,5.39l-9.41-5.46H143c8.3.05,17.33.37,26.84,1H170l.09.07,2.41,2-1.19-2,.68,0c11,.74,18.59,1.59,18.67,1.6l.34,0,0,.34c0,.07-.71,7.52-6.56,17.85l-.3.53-1.25-2.12a11.22,11.22,0,0,1,.37,3.54c-.31,1.63-1.45,2.94-2.66,4.33-.47.54-.95,1.1-1.38,1.67l-.51.68-.59-4a30.72,30.72,0,0,1-1.44,6.51c-2.53,5.36-8.28,9.61-14.36,14.12-.93.68-1.87,1.38-2.81,2.09l-.69.52,1.2-8.1-5.78,11.33-.08,0a153.17,153.17,0,0,1-22.51,12.41l-.75.34,4.81-13.91c-2.88,5.1-8.18,14-11.58,16.75a10.67,10.67,0,0,1-4.6,1.8c-.64.14-1.25.28-1.84.45l-.63.2,2.24-7.55c-2,2.68-5.8,7.68-8,9a9.06,9.06,0,0,1-4.28.92c-.59,0-1.15.06-1.7.13l-.77.11,7.8-15.32m.51-1.24,1.8-1.77-8.67,17.45q.5,0,1-.06a8.62,8.62,0,0,0,4-.83c2.91-1.73,9-10.44,9-10.52l1.25-1.81-3.09,10.43,1.27-.29a10.25,10.25,0,0,0,4.31-1.66c4.63-3.73,13.31-20,13.4-20.18l.65.28-5.64,16.29a153.64,153.64,0,0,0,21.59-12l7.66-15-1.58,10.67,2.12-1.58c6-4.45,11.7-8.66,14.15-13.85.94-2,1.69-8.76,1.7-8.83l.3-2.72,1.12,7.57c.3-.37.61-.72.91-1.06a9.44,9.44,0,0,0,2.5-4c.21-1.1-.62-4.4-1-5.58l-.76-2.66,3.27,5.54c4.81-8.66,5.93-15.15,6.13-16.68-1.58-.17-8.34-.87-17.6-1.51l2.63,4.39-1.6-1.33-3.92-3.25c-8.95-.57-17.47-.89-25.35-1l13.18,7.65-3.32-1.12c-.1,0-10.23-3.44-19.09-6.49-11.63.22-21.35,1.09-28.88,2.59-2.36.46-5,1-7.75,1.72l3.33,4.45-.47.44c-1.21-1.06-4.66-3.87-6.11-4.12a7,7,0,0,0-3.68.82c-.45.18-.9.37-1.37.53l11.12,11h0c-.13-.09-12.78-8.64-17.6-9.15-5.46-.57-10.91,1.91-16.19,4.31-2.2,1-4.47,2-6.71,2.83l13.42,8.22-19.52-6.18A67.89,67.89,0,0,0,45.37,633a59.76,59.76,0,0,1-7.23,3.36,90.42,90.42,0,0,1-16.5,4.26c2.23,3.14,15.71,21.22,36.91,32.71l17.9-2.91-11.37,6.12a75,75,0,0,0,32.59,6.6" fill="#fff" opacity="0.5"/><g opacity="0.5"><path d="M32.33,653.23l.14,1.08.13.13A111,111,0,0,0,58.32,674l.11.06,14-2.28-8.92,4.8.65.3a78,78,0,0,0,23.25,6.51l.16,0,.12-.1c3.9-3.35,6.32-7.15,9.11-11.56a96.72,96.72,0,0,1,19.69-23.4l.73-.65-1,0c-10,.26-21.78-8.33-32.19-15.91-5.35-3.9-10.41-7.58-14.53-9.49l-.14-.07-.15.07-2,.89a77,77,0,0,1-7.37,3l-.72.24,9.77,6L54.73,628l-.11,0a66.46,66.46,0,0,0-9.57,4.33,58.88,58.88,0,0,1-7.14,3.32c-2.37.85-4.8,1.61-7.22,2.27l-.3.08-.43.84a2.45,2.45,0,0,1,.76-.2l.45-.12c2.34-.65,4.69-1.38,7-2.2A59.65,59.65,0,0,0,45.37,633a68.44,68.44,0,0,1,9.36-4.26l19.53,6.18-13.43-8.22c2.24-.79,4.52-1.83,6.72-2.83l1.81-.82c4,1.9,9,5.52,14.27,9.36,10.17,7.4,21.66,15.77,31.68,16a97.17,97.17,0,0,0-19.13,23c-2.73,4.31-5.1,8-8.86,11.29a77.53,77.53,0,0,1-22.23-6.14l11.37-6.12-17.91,2.91a114.76,114.76,0,0,1-25.82-19.74" fill="#fff"/></g><path d="M58.1,651.34c3.85.45,7.72.8,11.6,1s7.77.27,11.66.21a172.54,172.54,0,0,0,23.25-1.86q5.77-.86,11.5-2.07c3.81-.81,7.59-1.76,11.34-2.82a191.46,191.46,0,0,0,22.07-7.69,212.32,212.32,0,0,0,21-10.21,225.14,225.14,0,0,0,19.79-12.45,185.63,185.63,0,0,0,18.33-14.51q2.16-2,4.25-4l1.24-1.23-.45-.14c-.63-.19-1.26-.36-1.89-.53-1.58,1.36-3.17,2.72-4.77,4.05-5.93,4.93-12,9.71-18.27,14.16a223.66,223.66,0,0,1-19.52,12.36,209.39,209.39,0,0,1-20.69,10.26,201.69,201.69,0,0,1-21.71,7.89A192.56,192.56,0,0,1,104.34,649a188.72,188.72,0,0,1-23,2.44q-5.79.24-11.59.12c-3.87-.08-7.73-.26-11.59-.57Z" fill="#fff" opacity="0.5"/><path d="M106.62,613.52c9.76,11.78,22.84,23.59,38.44,26.22.24,0,.55-.41.78-.37-15.6-2.63-28.68-14.43-38.44-26.22-.05-.06-.74.42-.78.37Z" fill="#fff" opacity="0.5"/><g opacity="0.5"><path d="M121.54,679.05c3.82-15.1,12.27-28.33,22-40.28-.16.2-1,.29-1.13.5-9.75,12-17.86,25.05-21.68,40.15,0-.17.73-.19.78-.37Z" fill="#fff" opacity="0.5"/></g><path d="M122.78,611.51a84.17,84.17,0,0,0,30.87,24.42c.14.06.5-.36.63-.3a84.17,84.17,0,0,1-30.87-24.42s-.6.33-.63.3Z" fill="#fff" opacity="0.5"/><path d="M141.39,669.85c3.07-12.5,6.93-24.88,13.73-35.91-.1.16-.53.13-.63.29-6.8,11-10.65,23.41-13.73,35.91,0-.14.59-.15.63-.29Z" fill="#fff" opacity="0.5"/><path d="M148.27,665.89c4.37-12.44,8.81-24.91,15.7-36.22-.1.16-.52.13-.63.29-6.88,11.31-11.33,23.79-15.69,36.23,0-.15.57-.14.62-.3Z" fill="#fff" opacity="0.5"/><path d="M130.82,611.15c9.17,7.41,18.42,14.78,28.9,20.27.13.07.51-.35.63-.29-10.48-5.49-19.73-12.87-28.9-20.28-.08-.07-.55.36-.63.3Z" fill="#fff" opacity="0.5"/><path d="M151.89,619.76c1.85,1.25,3.69,2.47,5.6,3.58s3.87,2.14,5.87,3.15a26.22,26.22,0,0,1-6.15-2.67A26.58,26.58,0,0,1,151.89,619.76Z" fill="#fff" opacity="0.5"/><path d="M112.05,635.68c1.85,1.24,3.69,2.47,5.61,3.58s3.87,2.14,5.86,3.15a26,26,0,0,1-6.14-2.67A26.73,26.73,0,0,1,112.05,635.68Z" fill="#fff" opacity="0.5"/><path d="M104.05,654.34c-1.41,1.73-2.8,3.45-4.09,5.25s-2.48,3.65-3.68,5.54a27,27,0,0,1,3.23-5.86A26.26,26.26,0,0,1,104.05,654.34Z" fill="#fff" opacity="0.5"/><path d="M39.94,661.15c2.09-1.1,4.17-2.16,6.29-3.13,2.85-1.32,5.74-2.45,8.68-3.57a34.86,34.86,0,0,0-8.94,2.8,39.69,39.69,0,0,0-6.36,3.67Z" fill="#fff" opacity="0.5"/><path d="M42.87,634.24c1,.89,2,1.75,3,2.58a70.89,70.89,0,0,0,10,6.87c-3.27-2.44-6.51-4.88-9.68-7.46-.94-.75-1.87-1.53-2.79-2.31Z" fill="#fff" opacity="0.5"/><path d="M36,657.13l.26-.12c2.85-1.32,5.74-2.45,8.68-3.57a34.86,34.86,0,0,0-8.94,2.8l-.61.29Z" fill="#fff" opacity="0.5"/><path d="M168.76,651.17a54.36,54.36,0,0,1,4.29-26.85c-.06.16-.55.14-.62.3a54.37,54.37,0,0,0-4.3,26.85c0-.07.63-.21.63-.3Z" fill="#fff" opacity="0.5"/><path d="M158.58,611.23a62.42,62.42,0,0,0,18.9,11.54c.15.06.48-.35.62-.3a62.5,62.5,0,0,1-18.89-11.54c-.07-.06-.56.35-.63.3Z" fill="#fff"/><g opacity="0.5"><path d="M99.9,618.77c8.66,10.76,19.23,18.93,32.25,23.69.16.06.48-.35.63-.3-13-4.76-23.59-12.93-32.25-23.68,0-.05-.6.33-.63.29Z" fill="#fff" opacity="0.5"/></g><g opacity="0.5"><path d="M49.13,630.88c11.11,9,24.69,18,37.44,20.64.18,0,.47-.34.63-.3-13.85-3.86-26.34-11.66-37.44-20.64-.08-.07-.55.36-.63.3Z" fill="#fff"/></g><g opacity="0.5"><path d="M53.05,670.49c6.51-8.06,14.48-13.56,23.66-18.22.27-.14-.58-.5-.86-.38-8.85,4-17.63,10.19-22.89,18.54,0,.05,0,.11.09.06Z" fill="#fff"/></g><g opacity="0.5"><path d="M76.08,680.34a62.71,62.71,0,0,0,12.78-14.73c3.14-5.07,7.31-13.33,13.19-15.52.43-.16.81-.47,1.24-.58-6,1.4-9.09,6-12,10.65-2.37,3.73-4.45,7.62-7.16,11.14a64.52,64.52,0,0,1-9.28,9.63c.33-.29.9-.3,1.24-.59Z" fill="#fff"/></g><path d="M105.77,142.06l-15.48-12,.85-.27c.6-.19,1.19-.44,1.81-.69A10.27,10.27,0,0,1,97.81,128c3,.28,9.34,3.57,12.67,5.38l-6-6.7.74-.1c.69-.11,1.39-.26,2.12-.43a12.25,12.25,0,0,1,5.61-.38c4.83,1.17,14.63,7.77,20.07,11.63l-11.72-12,.94,0a175.33,175.33,0,0,1,29.23,1.84l.1,0,11.46,8.86-5.17-7.76,1,.2c1.32.28,2.63.53,3.91.79,8.47,1.69,16.46,3.28,21.67,7.57a34,34,0,0,1,4.64,6l-1.32-4.4.85.46c.72.38,1.49.72,2.24,1,1.92.84,3.73,1.64,4.85,3.16A13.17,13.17,0,0,1,197,147l.26-2.79.57.41c11,7.78,15.39,15.12,15.43,15.2l.2.33-.34.21c-.07,0-7.53,4.63-18.45,10.72l-.67.38.26-2.62c-.43.9-1,2-1.52,3.22l-.05.12-.12.06c-9.5,5.25-18.65,10-27.17,14.06L164,187l7-10.2c-3.24,3.12-8.7,8.39-13.67,13.23l0,.05-.06,0c-12.17,5.46-22.67,9.32-31.21,11.45-2.85.71-6,1.43-9.47,2.13l-.6.12.87-4c-.92,1.77-2.12,3.77-3.09,4.46a8.58,8.58,0,0,1-4.61,1.09,19,19,0,0,0-2.27.21l-.71.12,4.67-12c-3,4.8-7.27,10.95-10.54,12.93-5.53,3.36-12.47,3.46-19.18,3.55a86.75,86.75,0,0,0-9.06.43l-.87.11,7.16-10.91L65.94,211.26l-.13,0a76.44,76.44,0,0,1-12,.18,66.64,66.64,0,0,0-9,0,97.6,97.6,0,0,0-19.54,3.8l-.63.21.1-.66c.05-.28,4.52-28.36,22.48-52.75l.08-.11,15.51-4.45-11.53-.62.53-.62a86.38,86.38,0,0,1,31.39-23.56l.2-.09.18.12m-.26.79A85.3,85.3,0,0,0,53,156.22l14.69.77L47.85,162.7C31.59,184.85,26.49,210,25.71,214.34a103.22,103.22,0,0,1,19.08-3.64,68.4,68.4,0,0,1,9.08,0,76.74,76.74,0,0,0,11.71-.17l17.11-15.85-9.83,15c2.69-.27,5.53-.31,8.29-.35,6.6-.09,13.43-.18,18.77-3.42,4.72-2.87,13.6-17.83,13.69-18h0l-6.12,16.69c.55-.06,1.11-.09,1.66-.11a8,8,0,0,0,4.19-1c1.37-.95,3.56-5.53,4.29-7.21l.7.22-1.27,6.22c3.2-.66,6.17-1.33,8.83-2,8.49-2.12,18.92-5.95,31-11.38,7.65-7.45,16.42-15.88,16.51-16l2.88-2.77-9.86,14.29c8.08-3.9,16.7-8.37,25.65-13.31l2.46-5.25,1-2.15L195,170c9.23-5.16,15.85-9.17,17.41-10.11-1-1.48-5.26-7.62-14.43-14.21l-.68,7.3-.5-3.12c-.23-1.37-1-5.17-1.73-6.21-1-1.35-2.71-2.1-4.53-2.9l-1.44-.66,2.52,8.35L190,145.78c0-.07-4.11-6.69-6-8.27-5.06-4.16-12.95-5.74-21.31-7.4l-3-.59,6.82,10.22L151.26,128a174.52,174.52,0,0,0-28-1.83l13.72,14-.53.61c-.17-.13-17-12.68-23.62-14.28a11.71,11.71,0,0,0-5.24.39c-.48.11-1,.22-1.45.31l8.25,9.24-2.17-1.25c-.1-.06-10.59-6.07-14.44-6.44a9.83,9.83,0,0,0-4.47,1.07c-.35.14-.7.29-1.06.42L109.62,144l-2.72-.94" fill="#fff"/><path d="M30.59,196.12,30.21,195l.07-.19a126.46,126.46,0,0,1,17-32.66l.08-.11,15.51-4.46-11.53-.61.53-.62a89.14,89.14,0,0,1,20.79-18l.15-.1.17.05c5.66,1.55,10,4.3,15,7.48a110.29,110.29,0,0,0,31.67,14.54l1.06.31-1,.45c-10.42,4.59-18.4,19.17-25.43,32-3.63,6.62-7,12.88-10.36,16.84l-.12.14h-.18l-2.45,0a89.89,89.89,0,0,0-9.07.44l-.87.11,7.16-10.91L65.94,211.25h-.13a75.27,75.27,0,0,1-12,.19,68.42,68.42,0,0,0-9,0c-2.85.29-5.73.68-8.54,1.18l-.35.07-.85-.66a2.7,2.7,0,0,0,.88-.17l.53-.09c2.72-.47,5.49-.85,8.25-1.13a68.4,68.4,0,0,1,9.08,0,76.74,76.74,0,0,0,11.71-.17l17.11-15.86-9.83,15c2.69-.28,5.54-.31,8.3-.35l2.26,0c3.22-3.91,6.59-10.06,10.15-16.57,6.88-12.58,14.66-26.79,24.84-31.92A110.75,110.75,0,0,1,87.56,146.4c-4.91-3.11-9.16-5.81-14.62-7.33A88.12,88.12,0,0,0,53,156.2l14.69.78-19.86,5.71a130.21,130.21,0,0,0-17,32.88" fill="#fff"/><path d="M58.07,185.55c3.74-2.34,7.56-4.58,11.46-6.67s7.87-4,11.9-5.88a198.12,198.12,0,0,1,24.87-9.39q6.36-1.94,12.85-3.45c4.32-1,8.68-1.88,13-2.61a217.92,217.92,0,0,1,26.48-2.8,241.59,241.59,0,0,1,26.64.29,260.94,260.94,0,0,1,26.44,3.2,215.72,215.72,0,0,1,25.93,6c2.12.64,4.23,1.34,6.33,2.07.63.21,1.25.44,1.87.66l-.39.36c-.56.5-1.12,1-1.69,1.47q-3.44-1-6.89-1.85c-8.5-2.2-17-4.19-25.7-5.72A254.66,254.66,0,0,0,185.11,158a240.62,240.62,0,0,0-26.31-.52A232.52,232.52,0,0,0,132.59,160a216.19,216.19,0,0,0-25.75,5.54,212,212,0,0,0-24.9,8.67q-6.09,2.57-12,5.51c-3.94,2-7.84,4-11.67,6.23Z" fill="#fff"/><path d="M126.44,200.93c4.32-16.88,12.05-35.41,26.86-45.69.22-.16.76.15,1,0-14.8,10.28-22.53,28.81-26.86,45.69,0,.09-1-.07-1,0Z" fill="#fff"/><path d="M110,126.16c11.28,13.7,26.42,23.22,42.28,30.8-.27-.13-1.13.16-1.4,0C135,149.42,120.25,139.86,109,126.16c.13.16.85-.16,1,0Z" fill="#fff"/><path d="M144.07,195.15A95.68,95.68,0,0,1,164,155c.12-.14.69.12.79,0a95.68,95.68,0,0,0-19.93,40.16c0,.06-.78-.05-.79,0Z" fill="#fff"/><path d="M134.88,126c9.24,11.38,19.24,22.26,31.6,30.32-.18-.12-.6.12-.79,0-12.36-8.06-22.36-18.94-31.6-30.32.1.12.68-.13.79,0Z" fill="#fff"/><path d="M143.89,126.73c10.54,10.69,21.19,21.39,33.79,29.69-.18-.12-.61.12-.79,0-12.6-8.3-23.25-19-33.79-29.69.13.13.66-.14.79,0Z" fill="#fff"/><path d="M152.53,191.61c5.84-12.09,11.78-24.18,19.91-34.94.1-.13.7.13.79,0-8.13,10.76-14.07,22.85-19.91,34.94,0,.11-.75-.09-.79,0Z" fill="#fff"/><path d="M170,172.5c1.3-2.19,2.61-4.34,4-6.42S177,162,178.58,160A31.7,31.7,0,0,0,170,172.5Z" fill="#fff"/><path d="M121.26,175.46c1.3-2.18,2.61-4.34,4-6.41s2.94-4.08,4.5-6.1a30.61,30.61,0,0,0-5,5.74A30,30,0,0,0,121.26,175.46Z" fill="#fff"/><path d="M104,160.13c-2.3-1.1-4.57-2.2-6.77-3.43s-4.33-2.55-6.48-3.92A31.66,31.66,0,0,0,104,160.13Z" fill="#fff"/><path d="M34.58,184.27c2.69.12,5.35.2,8,.16,3.57,0,7.1-.26,10.67-.53a39.6,39.6,0,0,1-10.57,1.46,44.45,44.45,0,0,1-8.34-.7C34.43,184.53,34.51,184.4,34.58,184.27Z" fill="#fff"/><path d="M50.68,210.57c.59-1.39,1.2-2.77,1.85-4.13a81.75,81.75,0,0,1,7-11.94c-2.19,4.12-4.34,8.2-6.35,12.39-.6,1.24-1.18,2.49-1.76,3.75Z" fill="#fff"/><path d="M32.45,190.33h.34c3.57,0,7.1-.26,10.67-.53a40,40,0,0,1-10.57,1.46h-.77Z" fill="#fff"/><path d="M172.15,131.93a62,62,0,0,0,17.48,25.58c-.14-.13-.64.13-.79,0a62,62,0,0,1-17.48-25.58c0,.08.76-.09.79,0Z" fill="#fff"/><path d="M117,198.79c3.69-15.29,10.62-28.85,21.72-40.09.13-.13.66.13.79,0-11.1,11.24-18,24.8-21.72,40.09,0,.06-.77-.06-.79,0Z" fill="#fff"/><path d="M58.77,211c7.07-14.66,16.7-30.53,28.54-39.48.16-.12.64.13.79,0C75.7,182.24,66.63,196.34,59.56,211c-.05.1-.74-.1-.79,0Z" fill="#fff"/><path d="M43.55,168.28c10.63,5.14,21.51,6.93,33.24,7.27.34,0-.36.8-.71.81-11,.21-23.12-1.93-32.59-8a.06.06,0,0,1,.06-.1Z" fill="#fff"/><path d="M62.49,146.93a71.73,71.73,0,0,1,20.32,9c5.7,3.7,14,10.19,21.14,9.58.52,0,1.06.09,1.56,0-6.86,1.48-12.3-1.82-17.55-5.13-4.25-2.7-8.29-5.69-12.79-8a73.14,73.14,0,0,0-14.24-5.41c.48.13,1.07-.13,1.56,0Z" fill="#fff"/></g></svg>