<svg id="f793aa07-dc63-4b2d-82ae-8199b415f472" data-name="Calque 1" xmlns="http://www.w3.org/2000/svg" viewBox="0 0 176.35 1146.92"><g opacity="0.35"><path d="M-55.13,1083.52l0-.41a39.84,39.84,0,0,1,6.16-15.75l.54-.83.45,4.11.39-5.26.07-.1a38.19,38.19,0,0,1,7.65-7.64l.77-.58-1.36,8.31c1.15-3.92,2.62-8.24,3.93-9.95,2.07-2.7,5.54-3.44,9.22-4.22.86-.19,1.75-.38,2.62-.59l.54-.13-1,12.53,3-13,.2,0a64,64,0,0,1,12.5-1c18.55.22,39.85-8,60.45-15.9,8.85-3.41,17.22-6.62,25.16-9.1l.45-.14,1,12.66,1.32-13.37.21-.06c1.72-.5,3.29-.92,4.8-1.3l.5-.12-.07,4.87,1.38-5.18.18,0c1.56-.35,3.09-.65,4.54-.89l.59-.1-2.11,11.79c1.59-4.58,4-10.6,6.07-12.24,1.31-1,3-.7,4.52-.42a12.07,12.07,0,0,0,1.66.24l.48,0-.94,6.93,4.2-6.53.2,0a22.12,22.12,0,0,1,7.8,3l.4.26-.21.43a131.35,131.35,0,0,1-15.56,22.88l-.15.17-5.09-2.32,3.74,3.92-.29.34a136.16,136.16,0,0,1-25.4,23l-.14.1-5.12-2.64,4.23,3.25-.54.36a114.45,114.45,0,0,1-19.56,10.54l-.16.07-4.82-3.61,2.88,4.39-.47.18a9.44,9.44,0,0,0-1.59.88c-1.22.76-2.47,1.56-3.92,1a10.23,10.23,0,0,1-3.3-2.88l2,3.36-.72.22-1.33.4a8.9,8.9,0,0,0-1.55.71c-1.14.61-2.33,1.25-3.6.6a9.21,9.21,0,0,1-2.7-2.93l1.49,3.31-.44.11a147.57,147.57,0,0,1-56,2.34l-.14,0-2.35-3.06,1.5,2.94-.7-.11c-17.24-2.74-28.21-7.59-28.32-7.64Zm6.26-14.67a40,40,0,0,0-5.42,14.1,126,126,0,0,0,27.11,7.32l-2.72-5.9,5.25,6.3a147,147,0,0,0,55.16-2.25l-4.91-11.48h0c1.25,2.76,5.37,9.92,7.42,11,1,.49,2,0,3-.61a8.75,8.75,0,0,1,1.66-.75l1.08-.32-6.52-11.36.14,0c1.66,2.69,6.74,9.79,9,10.64,1.17.43,2.26-.25,3.41-1a12.83,12.83,0,0,1,1.23-.73l-4.7-7.18,7.86,5.89A113.65,113.65,0,0,0,68,1072.39l-7.45-6.06h0l9.69,4.54a135.06,135.06,0,0,0,24.84-22.44L89,1042l8.31,3.79a134.13,134.13,0,0,0,15.11-22.12,21.33,21.33,0,0,0-7-2.61l-5.83,9,1.31-9.57-1.26-.21c-1.46-.27-3-.55-4.07.31-3.26,2.54-8.25,16.85-8.29,17h0l2.9-16.23c-1.21.21-2.46.46-3.74.75l-2.79,10.47.13-9.84c-1.29.33-2.63.69-4.07,1.11l-2.19,15.41L76.06,1025c-7.78,2.45-16,5.61-24.66,9-20.65,8-42,16.16-60.66,15.94a63.33,63.33,0,0,0-12.19,1l-5,20.29h0l1.51-19.52c-.7.17-1.41.32-2.1.46-3.57.76-7.38,1.2-8.87,4-1.81,3.39-6.48,16.7-6.52,16.83h0l2.28-13.89a37.14,37.14,0,0,0-6.67,6.82l-1.26,10.22h0Z" fill="#fff" opacity="0.5"/><path d="M65.05,1056.37l.92-1c6.66-7.46,5.83-15.6,4.81-23.63-.24-1.92-.61-3.35-.75-5.33l0-.34.25-.08c2.2-.77,4.16-1.41,6-2l.45-.14,1,12.66,1.32-13.37.21-.06c1.72-.5,3.29-.92,4.8-1.3l.5-.12-.07,4.87,1.38-5.18.18,0c1.56-.35,3.09-.65,4.54-.89l.59-.1-2.11,11.79c1.59-4.58,4-10.6,6.07-12.24,1.31-1,3-.7,4.52-.42a12.07,12.07,0,0,0,1.66.24l.48,0-.94,6.93,4.2-6.53.2,0a22.12,22.12,0,0,1,7.8,3l.4.26-.21.43a131.35,131.35,0,0,1-15.56,22.88l-.15.17-5.09-2.32,3.74,3.92-.29.34a143.79,143.79,0,0,1-11.59,11.93l-.18.16-.21-.15c-5.77-4.16-11.36-5.62-17.59-4.6Zm5.74-29.61c.14,1.83.5,3.13.72,4.92,1,7.57,1.82,15.94-4.17,23.39,5.86-.67,11.19.85,16.67,4.74a140.09,140.09,0,0,0,11.06-11.38L89,1042l8.31,3.79a134.58,134.58,0,0,0,15.11-22.12,21.56,21.56,0,0,0-7-2.61l-5.83,9,1.31-9.57-1.26-.21c-1.46-.27-3-.55-4.07.31-3.26,2.54-8.25,16.85-8.29,17h0l2.9-16.23c-1.21.21-2.46.46-3.74.75l-2.79,10.47.13-9.84c-1.29.33-3.3-.12-4.75.32l-1.46,11.69-1.54-9.8C74.44,1025.52,72.71,1026.1,70.79,1026.76Z" fill="#fff" opacity="0.5"/><path d="M-20.8,1080.22c-7.1,1.12-14.23,2-21.38,2.92q-5.35.64-10.73,1.22c-3.58.38-8.07.83-11.68,1.09s-9,1.06-12.68,1.11c0-.87-.08-2.11-.13-3,3.53-.52,8.84-1.23,12.39-1.63s7.9-.77,11.48-1.14,7.14-.76,10.71-1.17c7.13-.82,14.24-1.78,21.34-2.79s14.16-2.16,21.19-3.45a387.19,387.19,0,0,0,41.72-9.71,207.47,207.47,0,0,0,20.19-7.11c3.3-1.39,6.55-2.9,9.72-4.62,1.58-.86,3.15-1.75,4.67-2.73a30.11,30.11,0,0,0,4.37-3.29l.27.37a31.28,31.28,0,0,1-4.3,3.58c-1.5,1.07-3,2.07-4.6,3-3.14,1.86-6.36,3.51-9.62,5s-6.58,2.93-9.93,4.24-6.73,2.53-10.13,3.65a347,347,0,0,1-41.65,10.7C-6.62,1077.89-13.7,1079.11-20.8,1080.22Z" fill="#fff" opacity="0.5"/><path d="M26.45,1048.07c-.78,3.07-1.58,6.11-2.55,9.1s-2.09,5.93-3.25,8.9a37.89,37.89,0,0,0,4-8.67A37.37,37.37,0,0,0,26.45,1048.07Z" fill="#fff" opacity="0.5"/><path d="M62.34,1041c-.52,2.11-1,4.19-1.68,6.24s-1.37,4.06-2.13,6.09a25.66,25.66,0,0,0,2.65-5.93A26.33,26.33,0,0,0,62.34,1041Z" fill="#fff"/><path d="M65.61,1040.43c-.52,2.1-1,4.18-1.68,6.23s-1.37,4.07-2.13,6.1a27.14,27.14,0,0,0,3.81-12.33Z" fill="#fff"/><path d="M11,1076.78c2,1.62,3.91,3.23,5.75,4.94s3.58,3.48,5.33,5.29a30.52,30.52,0,0,0-4.88-5.69A33,33,0,0,0,11,1076.78Z" fill="#fff" opacity="0.5"/><path d="M88.8,1052.27c.88.47,1.75,1,2.58,1.53l-.37.3q-1.22-.7-2.46-1.35c-1.9-1-3.85-1.88-5.83-2.77A26.58,26.58,0,0,1,88.8,1052.27Z" fill="#fff"/><path d="M44.91,1036.49c-2.12,11.81-5.09,24-13.26,31.7-.13.12-.44,0-.56.1,8.17-7.73,11.14-19.89,13.26-31.7,0-.09.54,0,.56-.1Z" fill="#fff" opacity="0.5"/><path d="M51.73,1033.9c-2.19,12-5.26,24.38-13.61,32.22-.13.12-.44,0-.56.1C45.91,1058.38,49,1046,51.17,1034c0-.09.54,0,.56-.1Z" fill="#fff" opacity="0.5"/><path d="M4.6,1048.48a72,72,0,0,1-6.79,27.18c-.06.12-.61,0-.66.12a72,72,0,0,0,6.79-27.18c0-.06.66-.08.66-.12Z" fill="#fff" opacity="0.5"/><g opacity="0.5"><path d="M18.21,1091.38A51.06,51.06,0,0,0,4,1076.47c.13.09.53-.21.66-.12a50.93,50.93,0,0,1,14.26,14.91c0-.07-.61.2-.66.12Z" fill="#fff"/></g><g opacity="0.5"><path d="M5.58,1088.06A45.34,45.34,0,0,0-9,1075.56c.16.08.51-.21.67-.12,5.74,3.1,10.48,5.67,14,12.62Z" fill="#fff"/></g><path d="M23.05,1043.92c-1,7.86-4.67,21-8.8,27.78-.08.13-.59,0-.66.12,4.13-6.75,7.81-19.92,8.8-27.77,0-.08.65-.06.66-.13Z" fill="#fff" opacity="0.5"/><g opacity="0.5"><path d="M59.69,1077.62a45.16,45.16,0,0,0-18.35-12.9c.18.07.48-.18.66-.12a45.16,45.16,0,0,1,18.35,12.9c-.07-.09-.59.2-.66.12Z" fill="#fff"/></g><path d="M58.6,1031l.66-.12-.66.12Z" fill="#fff"/><path d="M60.73,1030.25a47.8,47.8,0,0,1-8.94,31.3c-.1.13-.58,0-.67.12a47.74,47.74,0,0,0,8.94-31.3s.67-.1.67-.12Z" fill="#fff" opacity="0.5"/><path d="M8.26,713.71c.15,0,14.87,4.58,33.92,16.46l.76.47L39,732.23l4.86-1,.16.1a189.66,189.66,0,0,1,52.32,49.43l.33.47-4.23,2a11.74,11.74,0,0,1,5.09-.57c1.77.44,2.39,2.06,3,3.62a11.35,11.35,0,0,0,.91,2c.33.5.64,1,.95,1.51l.51.82-4.8,1.55c2.37-.36,4.46-.46,5.63,0,1.86.7,2.42,2.52,3,4.29a12.18,12.18,0,0,0,.81,2.19l.3.57-6.5,1.83,7.72.56.1.2a147.59,147.59,0,0,1,10.09,26.72l.22.79-6.85-.41,7.2,1.76,0,.22a175.05,175.05,0,0,1,5.27,43.68v.57l-6.94.66,6.9,2v.29c-.44,20.77-4.14,35.16-4.18,35.31l-.16.59-.61-.09a28.31,28.31,0,0,1-10.1-3.65l-.22-.13,1.42-9.88-4.92,7.52-.49-.38a16.68,16.68,0,0,0-1.81-1.17c-1.7-1-3.62-2.12-4-4.22-.66-3.35,2.1-11.2,4.42-17L96.47,898.2l-.48-.6c-1.21-1.46-2.44-3-3.65-4.69l-.15-.19,3-6.18-4,4.77-.38-.54c-1.15-1.63-2.31-3.36-3.57-5.3l-.15-.24,10-14.08L85.39,882.56l-.32-.52c-5.62-9.09-11-19.26-16.73-30C55,827,41.29,801.07,23.11,785.66a81.79,81.79,0,0,1-11.26-11.54l-.17-.21,8-15.11-9.62,13-.42-.59c-.66-.94-1.37-1.88-2.05-2.78-2.9-3.86-5.65-7.5-5.38-11.87.17-2.75,2.39-8.18,4.58-13l-5.69,9.21-.26-1.21a49.15,49.15,0,0,1-1-13.86l0-.16,4.05-5.43L0,735.73l.17-1.25A51.11,51.11,0,0,1,7.51,714l.3-.44Zm.13,13h0L1,737.69a47.66,47.66,0,0,0,.72,12.23l9.5-15.39h0c-.08.16-6.76,17-7.87,21.81-.91,4,2.41,7.61,5.24,11.36.54.72,1.1,1.46,1.65,2.22l15-20.21h0L13,773.62a81.52,81.52,0,0,0,11,11.22c18.29,15.51,32.07,41.47,45.4,66.57C75,862,80.28,871.94,85.77,880.88l13.5-12.63L88.4,885c1,1.63,2,3.11,3,4.51l8.16-9.66-6.11,12.52c1,1.35,2,2.65,3,3.87l10.86-18.19h0c-.08.18-7.3,18.26-6.27,23.47.34,1.77,2,2.77,3.67,3.73.47.28,1,.56,1.4.86l6.81-10.39-2,13.68a27.34,27.34,0,0,0,8.94,3.33,173.35,173.35,0,0,0,4-34.19l-11.26-3.33L124,874.18a174.09,174.09,0,0,0-5.19-42.7l-13.23-3.77h0l12.34.41a146.38,146.38,0,0,0-9.73-25.59l-12.6-.92,10.62-3c-.23-.55-.41-1.16-.59-1.74-.5-1.67-1-3.25-2.48-3.81-2.9-1.08-13.81,1.52-17.69,2.75l-.1-.17,15.89-5.52c-.26-.41-.51-.82-.77-1.22a11.7,11.7,0,0,1-1-2.12c-.55-1.45-1.07-2.82-2.44-3.17-2.85-.72-12.88,2.75-16.42,4.38h0L95,781A188.82,188.82,0,0,0,43.4,732.32L33,734l7.61-3.45c-16.69-10.3-29.88-14.88-32.47-15.74a51.93,51.93,0,0,0-6.63,18.25Z" fill="#fff"/><path d="M102.58,842.47c5.19,6.24,11.84,9.53,20.94,10.36l.34,0,0,.31a185.83,185.83,0,0,1,1.18,21.33v.57l-6.94.66,6.9,2v.29c-.44,20.77-4.14,35.16-4.18,35.31l-.16.59-.61-.09a28.31,28.31,0,0,1-10.1-3.65l-.22-.13,1.42-9.88-4.92,7.52-.49-.38a16.68,16.68,0,0,0-1.81-1.17c-1.7-1-3.62-2.12-4-4.22-.66-3.35,2.1-11.2,4.42-17L96.47,898.2l-.48-.6c-1.21-1.46-2.44-3-3.65-4.69l-.15-.19,3-6.18-4,4.77-.38-.54c-1.15-1.63-2.31-3.36-3.57-5.3l-.15-.24,10-14.08L85.39,882.56l-.32-.52c-1.29-2.08-2.65-4.37-4.15-7l-.17-.3.31-.3c1.8-1.81,3.37-2.88,5.22-4.54C94,863,101.7,855.81,101.53,843l0-1.78ZM85.77,880.88l9.75-8.22-8.44,12.57c1,1.66,3.37,2.92,4.34,4.32l8.16-9.66-6.11,12.52c1,1.35,2,2.65,3,3.87l10.86-18.19h0c-.08.18-7.3,18.26-6.27,23.47.34,1.77,2,2.77,3.67,3.73.47.28,1,.56,1.4.86l6.81-10.39-2,13.68a27.57,27.57,0,0,0,8.94,3.33,173.22,173.22,0,0,0,4-34.19l-11.26-3.33L124,874.18a183.1,183.1,0,0,0-1.15-20.37c-8.59-.84-15-3.85-20.16-9.44-.47,12.28-8.36,19.67-15.66,26.2-1.73,1.56-3.17,2.51-4.85,4.17C83.43,877,84.63,879,85.77,880.88Z" fill="#fff"/><path d="M38.34,745.7c-6-7.06-12.08-14-18.28-20.84q-4.65-5.15-9.38-10.23C7.53,711.25,3.55,707,.27,703.74S-7.54,695.15-11.1,692c-.76.82-1.85,2-2.64,2.78,3,3.48,7.55,8.64,10.65,12s7,7.41,10.17,10.78,6.29,6.76,9.4,10.16c6.23,6.81,12.32,13.73,18.35,20.69s11.92,14,17.66,21.2a499.83,499.83,0,0,1,32.28,44.57,265.72,265.72,0,0,1,13.59,23.92c2,4.13,3.91,8.33,5.53,12.66.81,2.17,1.58,4.35,2.23,6.59a38.72,38.72,0,0,1,1.48,6.87l.56-.13A40,40,0,0,0,107,857q-.83-3.45-1.94-6.78c-1.48-4.43-3.21-8.75-5.09-13s-3.91-8.39-6-12.48-4.4-8.11-6.75-12.08a445,445,0,0,0-31.39-45.46Q47.29,756.28,38.34,745.7Z" fill="#fff"/><path d="M57.08,816.71c1.83-3.65,3.61-7.26,5.19-11s3-7.52,4.34-11.37a48.29,48.29,0,0,1-3.41,11.79A48.3,48.3,0,0,1,57.08,816.71Z" fill="#fff"/><path d="M5.5,764.2l.19.31c.8-.86,1.57-1.76,2.31-2.68a40.45,40.45,0,0,0,5.3-8.68c-1.94,2.79-3.87,5.53-6,8.16-.67.85-1.36,1.69-2,2.51Z" fill="#fff"/><path d="M86,853.78c1.27-2.48,2.53-4.93,3.63-7.46s2.09-5.1,3.06-7.71A34.84,34.84,0,0,1,86,853.78Z" fill="#fff"/><path d="M88.62,857.11c1.27-2.47,2.53-4.93,3.63-7.46s2.09-5.09,3.06-7.71a34.84,34.84,0,0,1-6.69,15.17Z" fill="#fff"/><path d="M66.32,775.87c3.28.09,6.51.16,9.73,0s6.42-.35,9.64-.63a39.11,39.11,0,0,1-9.53,1.4A42,42,0,0,1,66.32,775.87Z" fill="#fff"/><path d="M44.87,750.26c2.78-.06,5.54-.14,8.29-.38s5.47-.61,8.23-1a34.92,34.92,0,0,1-16.52,1.39Z" fill="#fff"/><path d="M33.18,744c1.46,0,2.93,0,4.38-.14a55.76,55.76,0,0,0,14-2.74c-4.72.62-9.4,1.22-14.11,1.54-1.6.12-3.21.2-4.82.27Z" fill="#fff"/><path d="M121.1,865.17c1.25.29,2.51.52,3.79.69,0-.2-.07-.4-.11-.6-1.18-.23-2.35-.48-3.52-.77-2.69-.63-5.33-1.42-8-2.23A32.93,32.93,0,0,0,121.1,865.17Z" fill="#fff"/><path d="M65.23,843.49c7.89-13.24,15.25-27.54,13.84-41.93,0-.22-.43-.35-.45-.57,1.4,14.39-6,28.69-13.85,41.93-.06.1.51.48.46.57Z" fill="#fff"/><path d="M69.65,851.75c8-13.5,15.45-28.08,13.95-42.72,0-.23-.43-.36-.45-.57,1.49,14.64-5.94,29.22-14,42.72-.06.1.51.48.45.57Z" fill="#fff"/><path d="M36.23,797.9a92.8,92.8,0,0,0,16.32-32.09c0-.17-.59-.52-.55-.68a92.65,92.65,0,0,1-16.31,32.1s.57.62.54.67Z" fill="#fff"/><path d="M46.25,758.32s.53.68.54.67-.54-.68-.54-.67Z" fill="#fff"/><path d="M46.19,758.3A98.15,98.15,0,0,1,34.9,781.76l-.06.08C41.55,775,44,767.29,46.74,759c0-.16-.59-.53-.55-.68Z" fill="#fff"/><path d="M22.59,784.21A82.73,82.73,0,0,0,35.18,761c.06-.15-.59-.53-.54-.67a83,83,0,0,1-12.59,23.19c-.05.06.58.62.54.67Z" fill="#fff"/><path d="M85.58,767.75a65.62,65.62,0,0,1-26.39,2.45c.2,0,.33.65.54.67a65.25,65.25,0,0,0,26.39-2.45c-.1,0-.43-.7-.54-.67Z" fill="#fff"/><path d="M70.53,760.33a58.32,58.32,0,0,1-24.71-.19c.22.05.32.62.54.67,8.18,1.83,14.94,3.33,24.17-.48-.13,0,.13,0,0,0Z" fill="#fff"/><path d="M50.28,817.86c5.67-8.45,13.2-24.33,14.88-34.36,0-.19-.57-.49-.54-.67-1.68,10-9.21,25.91-14.88,34.35-.05.08.59.61.54.68Z" fill="#fff"/><path d="M114.21,816.05a58,58,0,0,1-28.66-3c.23.09.31.59.54.68a58,58,0,0,0,28.66,3c-.14,0-.39-.7-.54-.68Z" fill="#fff"/><path d="M73.88,860.34s.54.68.54.68-.54-.68-.54-.68Z" fill="#fff"/><path d="M75.31,862.87C85.66,852.65,91.51,839.38,93,825c0-.21-.56-.48-.54-.68C91,838.7,85.12,852,74.77,862.2c0,0,.56.65.54.67Z" fill="#fff"/><path d="M100.64,625.88l.14-.13.18,0A75.81,75.81,0,0,1,131.87,641l.55.45-9.84,2.39,14.1,1.33.09.08c19.45,18.13,27.87,41.63,27.95,41.86l.19.55-.58-.08a85.71,85.71,0,0,0-17.47-.11,61.15,61.15,0,0,0-7.74,1.42,66.88,66.88,0,0,1-10.35,1.78h-.12L116,682.78l8,8.25-.76,0a76.44,76.44,0,0,0-7.9,1.1c-5.8,1-11.8,2.05-17.12.06-3.14-1.18-7.84-5.8-11.19-9.45l6,9.58h-.64a16.94,16.94,0,0,0-2,.19,7.66,7.66,0,0,1-4.15-.2A13,13,0,0,1,82.82,689l1.41,3.35h-.54c-3.08,0-5.94-.15-8.51-.3-7.72-.45-17.4-2.07-28.78-4.81h-.06l-.06,0c-5.07-3.37-10.63-7-13.94-9.2l7.73,7.66-1.28-.34c-8-2.13-16.67-4.73-25.73-7.71l-.11,0-.06-.09-1.83-2.54.65,2.22-.65-.22c-10.41-3.47-17.58-6.22-17.65-6.25l-.33-.12.12-.33c0-.07,2.58-7.1,10.84-15.61l.43-.44.68,2.36A11.1,11.1,0,0,1,5.68,653c.71-1.49,2.15-2.47,3.66-3.52.59-.4,1.2-.82,1.76-1.27l.67-.53-.43,4a30.1,30.1,0,0,1,3-5.94c3.8-4.55,10.43-7.22,17.46-10l3.24-1.32.8-.32-3.2,7.52,8.45-9.5.08,0a153.24,153.24,0,0,1,24.92-6.33l.81-.14-8.16,12.25c4.07-4.21,11.45-11.5,15.42-13.29A10.66,10.66,0,0,1,79.1,624c.66,0,1.28,0,1.89,0l.66,0-4.07,6.74c2.58-2.1,7.55-6,10.06-6.69a9,9,0,0,1,4.37.19c.58.11,1.13.23,1.68.3l.77.09L83.05,637.48m-.8,1.07-2.19,1.26,12.78-14.7-1-.19a8.56,8.56,0,0,0-4-.2c-3.25.94-11.32,7.83-11.41,7.9l-1.66,1.43,5.61-9.31c-.43,0-.87,0-1.3,0a10.34,10.34,0,0,0-4.58.52c-5.43,2.45-17.94,16-18.06,16.15l-.56-.44,9.56-14.33a151.91,151.91,0,0,0-23.9,6.13l-11.2,12.6,4.22-9.92-2.46,1c-6.94,2.79-13.49,5.42-17.18,9.84-1.41,1.68-3.84,8-3.87,8.11l-1,2.56.82-7.61c-.38.28-.77.54-1.15.8a9.52,9.52,0,0,0-3.43,3.24c-.48,1-.51,4.41-.48,5.64l.07,2.77-1.77-6.19c-6.84,7.17-9.55,13.17-10.14,14.6,1.49.56,7.86,3,16.66,5.9l-1.44-4.91,1.21,1.69s1.35,1.89,3,4.13c8.52,2.81,16.69,5.27,24.29,7.32L26.85,673.56l2.94,1.92c.09.06,9,5.91,16.83,11.1,11.32,2.72,20.94,4.33,28.6,4.78,2.41.14,5.08.24,7.94.29l-2.1-5.16.56-.3c.91,1.33,3.54,4.92,4.88,5.52a7,7,0,0,0,3.77.15c.47-.07,1-.14,1.45-.17l-8-13.41h0c.1.12,10.19,11.58,14.72,13.28,5.14,1.93,11,.91,16.75-.09,2.39-.41,4.85-.84,7.22-1L111.5,679.09,128.83,690A67.08,67.08,0,0,0,139,688.23a60.26,60.26,0,0,1,7.84-1.43,89.91,89.91,0,0,1,17,0c-1.37-3.6-9.86-24.49-27.48-41l-18.05-1.7,12.54-3A75,75,0,0,0,101,626.52" fill="#fff" opacity="0.5"/><path d="M156.68,671.92l.14-1.08-.09-.15a110.92,110.92,0,0,0-20-25.42l-.09-.08-14.1-1.33,9.84-2.39-.56-.45A78,78,0,0,0,111,628.85l-.14-.06-.14.07c-4.63,2.26-7.92,5.33-11.73,8.89a97,97,0,0,1-25,17.69l-.87.43,1,.23c9.73,2.26,19,13.55,27.14,23.5,4.2,5.12,8.16,10,11.66,12.85l.13.1.16,0,2.12-.36a76.26,76.26,0,0,1,7.89-1.1l.77,0-8-8.26,12.62,7.94h.11a67,67,0,0,0,10.36-1.78,61.15,61.15,0,0,1,7.74-1.42c2.51-.22,5-.34,7.56-.37h.31l.62-.71a2,2,0,0,1-.77,0h-.48c-2.42,0-4.88.16-7.3.37a60.26,60.26,0,0,0-7.84,1.43A67.3,67.3,0,0,1,128.83,690l-17.33-10.9,10.91,11.34c-2.36.2-4.83.63-7.22,1l-2,.34c-3.42-2.85-7.32-7.61-11.45-12.65-8-9.73-17-20.73-26.61-23.51a97.18,97.18,0,0,0,24.29-17.38c3.73-3.48,7-6.49,11.42-8.69a77.43,77.43,0,0,1,20,11.55l-12.55,3,18.06,1.7a114.43,114.43,0,0,1,20,25.61" fill="#fff" opacity="0.5"/><path d="M131.27,667.25c-3.62-1.41-7.27-2.72-11-3.89s-7.44-2.21-11.22-3.14a173.39,173.39,0,0,0-23-4.07q-5.8-.63-11.65-.89c-3.89-.17-7.79-.2-11.69-.13A193.25,193.25,0,0,0,39.47,657a212.82,212.82,0,0,0-22.93,4.58,225.19,225.19,0,0,0-22.29,7,189.42,189.42,0,0,0-21.39,9.43c-1.73.9-3.43,1.84-5.13,2.81l-1.5.87.4.25c.56.34,1.12.67,1.69,1,1.88-.92,3.75-1.83,5.64-2.71,7-3.28,14-6.38,21.24-9.1a223.49,223.49,0,0,1,22-7,212,212,0,0,1,22.61-4.72,203.77,203.77,0,0,1,23-2.16,193.71,193.71,0,0,1,23.11.6,188.1,188.1,0,0,1,22.89,3.44q5.67,1.23,11.25,2.81c3.72,1,7.42,2.2,11.08,3.48Z" fill="#fff" opacity="0.5"/><path d="M74.78,691.62C68.31,677.76,58.63,663,44.19,656.56c-.22-.1-.63.26-.85.16,14.44,6.47,24.12,21.2,30.59,35.06,0,.07.82-.22.85-.16Z" fill="#fff" opacity="0.5"/><g opacity="0.5"><path d="M76.87,624.45c-7.51,13.64-19,24.31-31.47,33.42.2-.15,1,0,1.21-.2,12.45-9.1,23.6-19.74,31.11-33.38-.09.15-.76,0-.85.16Z" fill="#fff"/></g><g opacity="0.5"><path d="M58.63,689.49a84.09,84.09,0,0,0-23.71-31.41c-.12-.1-.57.22-.69.13A83.93,83.93,0,0,1,58,689.62s.66-.17.68-.13Z" fill="#fff"/></g><g opacity="0.5"><path d="M55.34,628.35c-6.13,11.32-13,22.33-22.34,31.29.14-.14.54,0,.68-.13,9.36-9,16.21-20,22.34-31.29-.07.12-.61,0-.68.13Z" fill="#fff"/></g><g opacity="0.5"><path d="M47.68,630.44c-7.36,10.94-14.81,21.89-24.33,31.1.14-.14.55,0,.69-.13,9.51-9.21,17-20.16,24.32-31.1-.09.13-.59,0-.68.13Z" fill="#fff"/></g><g opacity="0.5"><path d="M50.76,687.82c-7-9.49-14.09-19-22.85-26.91-.11-.1-.58.22-.68.13C36,669,43.08,678.46,50.08,688c.06.08.63-.21.68-.13Z" fill="#fff"/></g><path d="M32.55,674.17c-1.48-1.68-2.95-3.32-4.52-4.88s-3.21-3-4.88-4.53a26.65,26.65,0,0,1,5.27,4.14A26.6,26.6,0,0,1,32.55,674.17Z" fill="#fff" opacity="0.5"/><path d="M75.12,668.81c-1.49-1.67-3-3.32-4.53-4.88s-3.2-3-4.88-4.53A26.09,26.09,0,0,1,71,663.54,26.65,26.65,0,0,1,75.12,668.81Z" fill="#fff" opacity="0.5"/><path d="M87.56,652.77c1.8-1.32,3.58-2.63,5.28-4s3.33-2.91,5-4.44a28.08,28.08,0,0,1-10.24,8.49Z" fill="#fff" opacity="0.5"/><path d="M151.32,662.33c-2.3.54-4.58,1-6.88,1.45-3.08.56-6.17.92-9.3,1.27a35.13,35.13,0,0,0,9.36-.46,38.77,38.77,0,0,0,7.08-2A3.88,3.88,0,0,1,151.32,662.33Z" fill="#fff" opacity="0.5"/><path d="M141.7,687.64c-.73-1.1-1.49-2.2-2.27-3.26a72.3,72.3,0,0,0-8-9.17c2.55,3.2,5.07,6.36,7.49,9.66.71,1,1.42,2,2.12,2.94Z" fill="#fff" opacity="0.5"/><path d="M154.14,667.22l-.29.06c-3.08.56-6.17.92-9.3,1.27a35.13,35.13,0,0,0,9.36-.46l.66-.13Z" fill="#fff" opacity="0.5"/><g opacity="0.5"><path d="M24.15,639.52a54.46,54.46,0,0,1-10.93,24.9c.1-.13.57,0,.68-.13a54.46,54.46,0,0,0,10.93-24.9c0,.07-.67.05-.68.13Z" fill="#fff"/></g><g opacity="0.5"><path d="M23.92,680.74A62.58,62.58,0,0,0,8.55,664.81c-.14-.1-.56.22-.69.13a62.29,62.29,0,0,1,15.38,15.93c.05.08.63-.2.68-.13Z" fill="#fff"/></g><g opacity="0.5"><path d="M82.61,688.23c-5.67-12.59-13.84-23.16-25.24-31.05-.14-.1-.55.22-.68.13,11.4,7.89,19.57,18.46,25.23,31.05,0,0,.67-.17.69-.13Z" fill="#fff"/></g><g opacity="0.5"><path d="M134.79,689.32c-8.48-11.49-19.36-23.62-31-29.42-.16-.08-.53.22-.68.13,12.43,7.23,22.55,17.93,31,29.42.06.08.62-.21.68-.13Z" fill="#fff" opacity="0.5"/></g><g opacity="0.5"><path d="M141,650c-8.33,6.15-17.43,9.47-27.49,11.67-.29.06.44.63.74.58,9.57-1.61,19.63-5.42,26.82-12.17A.05.05,0,1,0,141,650Z" fill="#fff"/></g><g opacity="0.5"><path d="M121.19,634.66a62.46,62.46,0,0,0-16.08,11c-4.32,4.11-10.45,11.06-16.69,11.69-.45,0-.9.25-1.34.26,6.16.15,10.32-3.57,14.3-7.28,3.24-3,6.24-6.26,9.74-9a64.33,64.33,0,0,1,11.41-7c-.39.19-1,.06-1.34.26Z" fill="#fff" opacity="0.5"/></g><g opacity="0.5"><path d="M64.48,445.53,81.32,449l-.57.54c-.39.38-.77.8-1.16,1.24a9,9,0,0,1-3.39,2.77c-2.44.92-8.74.8-12.06.66l7.29,3-.54.38c-.5.34-1,.74-1.5,1.15a10.76,10.76,0,0,1-4.28,2.47c-4.25.95-14.53-.47-20.31-1.41l13.87,4.92-.73.38a155.16,155.16,0,0,1-23.75,9.85l-.09,0-12.45-2.55,7.07,4.11-.84.22c-1.14.29-2.27.59-3.38.89-7.32,1.94-14.24,3.78-20,2.41a30.13,30.13,0,0,1-6-2.94L1.26,480l-.85,0c-.72,0-1.46,0-2.17,0-1.84.07-3.58.14-5-.62a11.49,11.49,0,0,1-2.53-2.5l.88,2.29-.61-.09c-11.71-1.87-18-6-18-6l-.29-.19.18-.29c0-.06,4.15-6.56,10.4-15.58l.39-.56.8,2.17c0-.88,0-2-.05-3.13v-.12l.07-.09c5.46-7.81,10.84-15.07,16-21.58l.83-1L-.4,443.44c1.35-3.72,3.61-10,5.66-15.71l0-.06,0-.05a170.44,170.44,0,0,1,20.17-21.09c2-1.66,4.2-3.45,6.64-5.34l.42-.33.88,3.54a13.14,13.14,0,0,1,.71-4.71,7.58,7.58,0,0,1,3.21-2.64A15.31,15.31,0,0,0,39.06,396l.52-.37,1,11.25C41,402,42,395.44,43.83,392.61c3.06-4.78,8.5-7.54,13.75-10.2a76.2,76.2,0,0,0,7-3.85l.64-.42-1.42,11.37,5.36-13.91.09-.07a67.75,67.75,0,0,1,9.36-4.77,60.14,60.14,0,0,0,7-3.5,85.58,85.58,0,0,0,13.93-10.55l.41-.41.18.56c.07.23,7.4,24.1,2.68,50.26l0,.12-10.5,9.5,9.32-4-.18.69a75.77,75.77,0,0,1-15.63,30.71l-.12.14-.19,0m-.1-.73A74.81,74.81,0,0,0,100.58,414l-11.87,5.07,13.44-12.18c4.26-23.74-1.46-45.54-2.52-49.25A89.88,89.88,0,0,1,86,367.86a60.72,60.72,0,0,1-7.13,3.55,67,67,0,0,0-9.17,4.65l-7.35,19.11,1.95-15.61c-2,1.25-4.24,2.38-6.4,3.48-5.17,2.62-10.51,5.33-13.47,9.95-2.61,4.09-3.83,19.31-3.84,19.46h0L39,396.93c-.41.26-.84.5-1.26.73A7.05,7.05,0,0,0,34.76,400c-.7,1.29-.67,5.74-.59,7.35l-.64.09-1.4-5.38c-2.26,1.75-4.34,3.43-6.18,5-5.87,4.95-12.61,12-20,20.95-3.14,8.83-6.8,18.87-6.84,19l-1.2,3.29L.11,435.21c-4.86,6.19-9.93,13.05-15.07,20.4.05,2.77.09,5.09.09,5.09l0,2.08L-16.61,458c-5.28,7.63-8.95,13.35-9.81,14.7,1.33.79,7.09,4,16.86,5.62l-2.29-6,1.61,2.26c.71,1,2.76,3.71,3.76,4.23a9.46,9.46,0,0,0,4.69.54c.46,0,.92,0,1.39,0l-5.21-5.61,2.31,1.47c.06,0,5.83,3.68,8,4.18,5.59,1.33,12.42-.49,19.65-2.41l2.56-.67-9.32-5.42,16.51,3.38a151.77,151.77,0,0,0,22.82-9.4L40.64,459l.19-.68c.18,0,18.32,3.41,24.13,2.12a10.27,10.27,0,0,0,4-2.33l1-.81-10.07-4.09,2.19.14c.11,0,10.7.7,13.87-.5a8.52,8.52,0,0,0,3.11-2.58c.22-.24.44-.49.67-.73l-19-4.12,2.5-.3" fill="#fff"/><path d="M102.83,373.86l.75.78,0,.18a110.78,110.78,0,0,1-.77,32.31l0,.12-10.5,9.5,9.32-4-.18.69A78,78,0,0,1,92,435.71l-.08.13-.15,0c-5.06,1-9.54.47-14.72-.09a96.56,96.56,0,0,0-30.58.77l-1,.17.63-.74c6.43-7.64,7.09-22.22,7.66-35.08.29-6.62.57-12.87,1.65-17.27l0-.16.14-.07,1.92-1a77.74,77.74,0,0,0,7-3.85l.64-.42-1.43,11.37,5.36-13.92.1-.06a67.09,67.09,0,0,1,9.35-4.77,59.54,59.54,0,0,0,7.06-3.5c2.14-1.33,4.25-2.75,6.27-4.23l.25-.19.93.2a2.18,2.18,0,0,0-.63.46l-.38.28c-2,1.42-4,2.8-6.07,4.08a59.37,59.37,0,0,1-7.14,3.54,68.14,68.14,0,0,0-9.16,4.66l-7.36,19.11,2-15.61c-2,1.25-4.25,2.38-6.41,3.48l-1.77.9c-1,4.33-1.3,10.48-1.59,17-.57,12.57-1.2,26.77-7.24,34.76a97.2,97.2,0,0,1,29.86-.63c5.07.56,9.46,1,14.35.13A77.42,77.42,0,0,0,100.59,414l-11.88,5.07,13.45-12.18a114.64,114.64,0,0,0,.69-32.49" fill="#fff"/><path d="M85.27,392.81c-2,3.3-4.19,6.54-6.46,9.69s-4.64,6.24-7.11,9.24a173.35,173.35,0,0,1-16,17q-4.27,4-8.8,7.69t-9.28,7.1A190.32,190.32,0,0,1,17.88,456,211.38,211.38,0,0,1-3.23,466.05a229.59,229.59,0,0,1-22.07,7.7A187.42,187.42,0,0,1-48.08,479q-2.88.48-5.79.82c-.57.08-1.15.14-1.73.21.06-.15.11-.3.17-.44.25-.61.5-1.21.77-1.81,2-.39,4.1-.78,6.14-1.2,7.55-1.56,15.06-3.29,22.46-5.43a224.32,224.32,0,0,0,21.84-7.54,211.8,211.8,0,0,0,20.94-9.77,201.51,201.51,0,0,0,19.71-12,192.54,192.54,0,0,0,18.15-14.32A187.23,187.23,0,0,0,70.85,411q3.81-4.36,7.33-9c2.35-3.08,4.63-6.21,6.79-9.42Z" fill="#fff"/><path d="M25.44,407.12c3.11,15,4.18,32.57-3.51,46.4-.12.21-.66.18-.77.38,7.69-13.83,6.62-31.42,3.5-46.4,0-.07.79-.31.78-.38Z" fill="#fff"/><path d="M67.33,459.68c-14.18-6.44-29.79-8.09-45.22-7.93.26,0,.83-.57,1.09-.57,15.43-.16,30.72,1.68,44.91,8.12-.17-.08-.61.45-.78.38Z" fill="#fff"/><path d="M13.78,418.49a84.1,84.1,0,0,1-.19,39.37c0,.14-.59.16-.62.3a84.06,84.06,0,0,0,.18-39.36c0-.06.64-.26.63-.31Z" fill="#fff"/><path d="M47.75,469.44C36.06,464,24,459.33,11.12,457.76c.19,0,.43-.33.63-.31,12.85,1.57,24.94,6.29,36.62,11.69-.13-.06-.49.36-.62.3Z" fill="#fff"/><path d="M40.36,472.35C27.92,468,15.4,463.68,2.26,462c.19,0,.43-.33.62-.3,13.14,1.67,25.66,6,38.1,10.34-.14-.06-.46.36-.62.3Z" fill="#fff"/><path d="M8.48,424.55c.07,11.79.06,23.62-2.19,35.24,0,.14-.6.17-.63.3,2.26-11.62,2.26-23.45,2.19-35.23,0-.11.63-.21.63-.31Z" fill="#fff"/><path d="M2.06,446.39c-.18,2.22-.37,4.42-.7,6.61s-.74,4.36-1.19,6.55a26.24,26.24,0,0,0,1.74-6.47A26.3,26.3,0,0,0,2.06,446.39Z" fill="#fff"/><path d="M39.36,425.19c-.18,2.23-.37,4.43-.7,6.62s-.74,4.36-1.2,6.55a26.49,26.49,0,0,0,1.75-6.47A26.38,26.38,0,0,0,39.36,425.19Z" fill="#fff"/><path d="M58.93,430.59c2.24,0,4.45,0,6.66.08s4.41.34,6.63.59a27.86,27.86,0,0,0-13.29-.67Z" fill="#fff"/><path d="M104.27,384.75c-2.16.94-4.29,1.9-6.37,3-2.81,1.4-5.5,3-8.21,4.55A34.75,34.75,0,0,1,97.46,387a39.3,39.3,0,0,1,6.84-2.67Z" fill="#fff"/><path d="M81.42,370.24c.07,1.32.12,2.65.13,4a71.72,71.72,0,0,1-.88,12.11c.13-4.09.25-8.14.22-12.22,0-1.21,0-2.42-.07-3.63Z" fill="#fff"/><path d="M103.6,379.14l-.26.13c-2.8,1.4-5.49,3-8.21,4.55a35.17,35.17,0,0,1,7.77-5.23c.2-.11.41-.2.61-.29Z" fill="#fff"/><path d="M16.08,479.17a54.4,54.4,0,0,0-23.66-13.4c.16.05.45-.35.62-.3a54.35,54.35,0,0,1,23.66,13.4c-.05-.06-.56.36-.62.3Z" fill="#fff"/><path d="M33.73,405.15c3,13.48,2.79,26.84-1.62,40,0,.16-.57.16-.62.31,4.41-13.15,4.62-26.51,1.62-40,0-.06.63-.26.62-.31Z" fill="#fff"/><path d="M74.88,373c.08,14.28-1.37,30.51-7.24,42.14-.08.16-.56.15-.62.31,5.62-13.24,7.32-27.86,7.23-42.14,0-.11.63-.21.63-.31Z" fill="#fff"/><path d="M103.38,400.81c-10.36.07-19.63,2.86-29,7.12-.28.13,0-.77.24-.9,8.63-4.45,19-7.42,28.77-6.32a.05.05,0,1,1,0,.1Z" fill="#fff"/><path d="M96.71,425a62.44,62.44,0,0,1-19.48.79c-5.92-.71-15-2.6-20.37.63-.38.23-.86.34-1.23.6,4.84-3.82,10.41-3.32,15.82-2.74,4.4.48,8.74,1.28,13.17,1.36a64,64,0,0,0,13.32-1.24c-.43.08-.79.52-1.23.6Z" fill="#fff"/></g></g></svg>