<svg id="e5f829ce-b092-41a3-87fc-76fba7f6ca92" data-name="Calque 2" xmlns="http://www.w3.org/2000/svg" viewBox="0 0 1573.05 244.1"><path d="M113.16,149.3a11.32,11.32,0,0,0-2.1.2c-.74.13-1.6.27-2.6.41a19.83,19.83,0,0,1-2.3.2v35.12a2.42,2.42,0,0,1-2.19,2.63h0a32.45,32.45,0,0,1-3.8.41l-30-.41c-1.33,0-2.16-.2-2.5-.61a4.61,4.61,0,0,1-.5-2.63q-.6-30.45-.6-39.79-.19-29.85,0-52.78,0-3.26.6-29.23a15.28,15.28,0,0,1,.2-2.24A2.59,2.59,0,0,1,70,58.14h.08c2.54,0,6.27-.07,11.21-.2l11.22-.3q3.8-.1,11.21.1,20.82.6,31,5.07,22,9.54,29.83,27,2.2,4.88,2.2,13.4a45.62,45.62,0,0,1-7,25q-6.4,9.94-20.22,15.23Q130,147.28,113.16,149.3Zm-5.53-53.94c-.15.78-.62,5.45-.62,15q0,7.47,1.26,9.09c.85,1.09,3,1.32,6.33.7,6.43-1.08,10.8-4.06,12.49-9.66a15.75,15.75,0,0,0,0-9.22A15.42,15.42,0,0,0,121.7,94a30.08,30.08,0,0,0-7.79-3.42q-3.69-.93-4.72-.11c-.69.54-1.41,2.43-1.56,4.91Z" fill="#fff"/><path d="M784.1,149.3a11.3,11.3,0,0,0-2.09.2c-.74.13-1.6.27-2.6.41a19.83,19.83,0,0,1-2.3.2v35.12a2.42,2.42,0,0,1-2.19,2.63h0a32.45,32.45,0,0,1-3.8.41l-30-.41c-1.33,0-2.17-.2-2.5-.61a4.53,4.53,0,0,1-.5-2.63q-.6-30.45-.6-39.79-.19-29.85,0-52.78,0-3.26.6-29.23a14,14,0,0,1,.2-2.24A2.59,2.59,0,0,1,741,58.14h.09q3.79,0,11.21-.2l11.22-.3q3.79-.1,11.21.1,20.82.6,31,5.07,22,9.54,29.84,27,2.19,4.88,2.2,13.4a45.71,45.71,0,0,1-7,25q-6.4,9.94-20.22,15.23Q800.92,147.28,784.1,149.3Zm-5.52-53.94c-.16.78-.62,5.45-.62,15q0,7.47,1.26,9.09c.85,1.09,2.95,1.32,6.32.7,6.44-1.08,10.8-4.06,12.5-9.66a15.75,15.75,0,0,0,0-9.22,15.47,15.47,0,0,0-5.43-7.3,30.42,30.42,0,0,0-7.79-3.42c-2.46-.62-4-.65-4.72-.11S778.73,92.88,778.58,95.36Z" fill="#fff"/><path d="M250.71,97.11V63a4.43,4.43,0,0,1,.8-3,5.23,5.23,0,0,1,3-1.32q6.6-.81,24.83-.61c3.06.14,5.07.2,6,.2,2.14,0,3.5.28,4.1.82s1,2,1.1,4.26c0,.81,0,2.57-.1,5.28a37.24,37.24,0,0,0,.1,5.28q0,4.26.1,14t.1,14.82q.4,8.73.2,20.1a119.62,119.62,0,0,1-1.8,19.9c-2.8,14.34-7.4,26-15.81,34.36-8,7.72-18.69,10.69-30,10.9-10.55.2-15.47-.15-17.25-.26a43.43,43.43,0,0,1-16.79-4.4,58.23,58.23,0,0,1-8.92-6.08c-7.21-6.5-12.32-12.85-15.09-23.79-3-11.72-5.09-24.26-4.82-36.31q.2-6.9.2-14.92V70.74a56.14,56.14,0,0,1,.53-8.59,4.33,4.33,0,0,1,3.57-3.88c10-1.42,16.67-.66,22-.89.93,0,2.77-.12,3.91-.07s2.22,0,3.36,0,2.17.11,3.1.1c1.95,0,3.42.38,3.69,2a36.87,36.87,0,0,1,.51,6.2v39a142.17,142.17,0,0,0,3,30.86,43,43,0,0,0,5.28,12.28c1.33,2.44,4,3.05,7.05,3.11s6-.74,8-3.18c4-3.73,6-10,6.09-16.11q.19-3,0-31.67v-2C250.7,97.64,250.71,97.39,250.71,97.11Z" fill="#fff"/><path d="M310.57,122.51q0-44.26.2-53.8c0-.54,0-3.72.26-8.32.13-1.63,1.21-1.9,3-2a170.22,170.22,0,0,1,32.08-.45c1.07,0,2.76.31,4.76.45s4.16.5,5.82.74c1.87.26,3.24.3,4.7.57C373,61.16,383.52,65.74,393.66,74a75,75,0,0,1,19,22.73q4.41,8.13,5,19.7c.67,15.29-2.62,31.9-12.5,45-11.21,15-25.67,22-40.76,25.82a61.6,61.6,0,0,1-7.6,1.53,58.82,58.82,0,0,1-7.61.5c-2.94.14-12.39-.07-29.74-.47-.27,0-1.17,0-1.6,0a4.68,4.68,0,0,1-.75-.11c-.34-.06-.84-.17-1.15-.2a8,8,0,0,1-3.6-1.22c-.67-.54-1-1.69-1-3.45q-.81-10.16-.8-15Zm40.06-19.2v40.12a3.45,3.45,0,0,0,.89,2.64,3.36,3.36,0,0,0,2.88.76l1.68-.43c8.8-2.4,15.84-5,20.73-13.25,4.32-7.5,3.37-17.29-2.92-23.38-1.12-1-2-1.77-2.72-2.33a35.28,35.28,0,0,0-17-7.32c-1.67-.28-2.5,0-2.84.33A4.12,4.12,0,0,0,350.63,103.31Z" fill="#fff"/><path d="M514.38,147.27a5.4,5.4,0,0,0,2.63-3.08,13.32,13.32,0,0,0,.4-5.85c-7,.2-10.9.17-12.23.21-2.28.07-4.54,0-6.41,0-1.19,0-1.54.1-2-.1s-.88-.17-1.08-.71a7.71,7.71,0,0,1-.3-2.44q0-2.43.2-14.82c0-.13,0-.4,0-.74s0-.6,0-.88,0-.94,0-1.07c.13-2,1.24-2.58,3.11-2.58Q524.22,115,528,115q2,0,15.82.2c1.07,0,2.36,0,3.16.06a3.75,3.75,0,0,1,2.56.82c.53.54.55,1.69.69,2.77q.19,12.18,0,25a91.13,91.13,0,0,1-.6,9.34,35.34,35.34,0,0,1-12.74,23.45,49.77,49.77,0,0,1-13.19,7.76,62,62,0,0,1-14.28,3.95,108.87,108.87,0,0,1-17.86,1.17q-31.44-.81-50.46-26.59-12.81-17.65-11-46.28a70.77,70.77,0,0,1,8.41-29.24Q451.74,63,480.77,56.73a83,83,0,0,1,23.42-1.82q20.22,1.62,36.44,15.83c1.2,1.08,2.15,1.81,2.35,2.82s-.41,2.59-1.34,4.08Q537,85.56,529.82,97.53c-.67,1.09-1.37,2-2.1,2.23s-1.9-.19-3.5-.6c-9.75-2.85-20.35-4.1-29-2.07-8,1.9-12.9,4.2-17.84,10.83-5.21,7.31-6,19.66-1.74,29,4.13,8.94,11.33,14.38,21.74,14.65A32.25,32.25,0,0,0,514.38,147.27Z" fill="#fff"/><path d="M995.11,147.27a5.37,5.37,0,0,0,2.63-3.08,13.17,13.17,0,0,0,.4-5.85c-7,.2-10.9.17-12.23.21-2.27.07-4.53,0-6.4,0-1.19,0-1.54.1-2-.1s-.88-.17-1.08-.71a7.18,7.18,0,0,1-.3-2.44q0-2.43.2-14.82c0-.13,0-.4,0-.74s0-.6,0-.88,0-.94,0-1.07c.13-2,1.24-2.58,3.11-2.58q25.43-.21,29.24-.2,2,0,15.81.2c1.07,0,2.36,0,3.17.06a3.78,3.78,0,0,1,2.56.82c.53.54.55,1.69.68,2.77q.19,12.18,0,25a85.79,85.79,0,0,1-.6,9.34,35.3,35.3,0,0,1-12.74,23.45,49.87,49.87,0,0,1-13.18,7.76,62.16,62.16,0,0,1-14.28,3.95,109,109,0,0,1-17.87,1.17q-31.42-.81-50.45-26.59-12.83-17.65-11-46.28a71.07,71.07,0,0,1,8.41-29.24Q932.46,63,961.5,56.73a83.07,83.07,0,0,1,23.43-1.82q20.22,1.62,36.44,15.83c1.2,1.08,2.15,1.81,2.35,2.82s-.42,2.59-1.35,4.08q-4.61,7.92-11.81,19.89c-.67,1.09-1.38,2-2.11,2.23s-1.9-.19-3.5-.6c-9.75-2.84-20.35-4.09-29-2.06-8,1.9-12.91,4.2-17.85,10.83-5.2,7.31-6,19.66-1.74,29,4.14,8.93,11.33,14.38,21.75,14.65A32.13,32.13,0,0,0,995.11,147.27Z" fill="#fff"/><path d="M601.9,70.74q1.2,1.62,13.42,17.26,8.2-10.35,8.61-11,3.39-4.26,16.41-20.5a4.68,4.68,0,0,1,.8-1q2.61-2.84,3.9-3c.87-.14,2.44.61,4.71,2.23,8,5.82,17.9,12.28,25.17,19.11,1.6,1.9-1.81,4.92-3.14,6.67q-1,1.23-4.3,5.38c-2.2,2.78-3.91,4.91-5.11,6.4q-6.4,8.52-16.22,21.92-1,1.22-3.6,5t-4.2,5.79q-3.21,4.06-3.2,10.76v46.08a4.77,4.77,0,0,1-.9,3.35,4.59,4.59,0,0,1-3.3.91H598.9c-2.27,0-3.79-.4-3.92-2.44-.27-3.65-.08-7.1-.08-9.13q0-4.87.3-14.11t.3-13.3q.19-6.28,0-13.8a5.94,5.94,0,0,0-.8-3.24q-2.82-4.07-12.82-19.29-2-2.83-5.81-8.52T569.27,92q-3-4.56-5.61-8.62c-.53-.82-1.87-2.91-4-6.3-.93-1.62-1.24-3.53.36-4.75a171.56,171.56,0,0,1,14.57-10.43c.27-.13,3.76-2.48,10.3-6.54,2-1.22,3.67-1,5,.61Q597.9,65.88,601.9,70.74Z" fill="#fff"/><path d="M893.43,118q.2-8.61.2-15.78,0-.41-.4-40.77c0-1.78-.16-3.2-.69-3.82s-1.85-.69-3.72-.69h-3c-16,.28-25.42-.14-27.82,0-2.14,0-3.51.32-3.89,1.18a14.46,14.46,0,0,0-.52,4.76v57h0l.11,54.74c-.11,2.79,0,6.09,0,8.46,0,4.56-.12,4.63,6.89,4.63s16.82.34,29.23.61c1.33,0,2.68-.09,3-.53.62-.89.41-2,.54-3.34.14-8.06.12-13,0-15.85v-5.33c0-2.18.09-3.88.09-5.93s-.08-3.7-.08-5.35c0-4.23-.09-8.72-.12-14.94C893.2,130.43,893.29,123.73,893.43,118Z" fill="#fff"/><path d="M1096.31,99c-2.27,0-4.24-.06-4.53,1.37a70.37,70.37,0,0,0-.24,9.18,1.2,1.2,0,0,0,1.14,1.14c14.27.49,22.64.17,25.11.3,2,0,5,0,6.36.17,2.45.18,1.78,2.54,2,4.7a158.09,158.09,0,0,1,.13,19.59c-.31,4,0,3.38-6.12,3.7-2.15.12-7.14,0-11.89.07-5.58.13-8.58,0-11.56.11-1.88.09-4-.22-4.71.77-.9.92-.56,4.95-.52,6.92,0,2.78.58,2.93,1.78,3.1a41.34,41.34,0,0,0,5.34.26c3.28,0,8.55.1,9.67.11,10.48.1,12.64,0,21.22,0,.8,0,3.81-.05,5.59.08,2.74.21,2.56,1.08,2.7,4.95.07,2.05.07,3.94.07,5.16-.13,2.57.31,9.94,0,22.53,0,2.16-.37,3.69-1.1,4.56s-2.82,1.6-4.95,1.73a110,110,0,0,1-11.63.05c-7.08-.14-16.37-.18-29.12-.45s-21-.41-25.22-.52c-1.2,0-2.61-.06-4.14-.06s-3.11,0-4.58,0-2.78-.12-3.85-.12c-1.87-.14-3.11-.21-3.91-1s-.88-2.31-1-4.2c0-1.22-.24-2.94-.17-5.18s-.07-3.88-.07-4.7q.4-59.67.4-59.88c.13-4.06-.08-8.78,0-13.45s0-10.22.23-15.7.16-9.8.16-12.91c0-1,0-2.72,0-4.42s.12-3.06.15-3.87a3.47,3.47,0,0,1,.51-2.06,1.92,1.92,0,0,1,1.58-1.07,17.09,17.09,0,0,1,3.19-.33c1.34-.06,2.87,0,4.61,0s3.47,0,5.21-.1,3.26-.1,4.6-.1c4.27-.13,10.14-.15,17.28-.3,7-.15,13.52,0,19.6-.19s11.33.22,16.54.08c1.6-.13,4.27-.07,7.09-.06h4.72c2.27.13,3.46,0,3.73,2.48.4,4.88.48,8.38.48,9.19,0,10.83.26,17.81,0,21.87-.14,2.57-.09,3.88-1.08,5-.65.77-2.28,1.36-4.82,1.5-4.4.23-10.06,0-17.61.1-2.14,0-6-.13-9.94-.06S1098.18,98.89,1096.31,99Z" fill="#fff"/><path d="M1208.84,55.76a68.9,68.9,0,0,1,9-.41c19.31,0,27.26,3.86,40.46,15,10.86,9.25,17.94,22.1,20.53,37.14,3.45,19.92-.71,42.4-11.2,58.2-8.88,13.49-17,17.91-31.41,23.18a84.81,84.81,0,0,1-26.9,3,54,54,0,0,1-22.48-7,53.09,53.09,0,0,1-18-16.39c-11-15.67-14.48-35.3-11.5-55,2.6-17.2,6-28.07,15.8-40.15,5.92-7.33,13.55-11.42,23-14.77C1200.81,56.74,1206.79,56.1,1208.84,55.76Zm21.79,87.09c5.38-5.27,8.17-10.45,8.51-20.56a18.21,18.21,0,0,0-.52-5.2,24.36,24.36,0,0,0-9.65-15.67c-5-3.6-11.71-4.14-18.49-1.18-7,3.21-11.73,8.85-13.23,19.09a31,31,0,0,0,1.27,12.93,22.61,22.61,0,0,0,6.58,9.83,22,22,0,0,0,9.91,5Q1224.33,148.82,1230.63,142.85Z" fill="#fff"/><path d="M1363,96.32c.35.43.87.47.92-.09.27-5.69.35-8.76.35-9,.13-1.08.06-9.61.33-25.58a25.49,25.49,0,0,1,0-3.27c0-2,1.14-2,3-2q3.2,0,29.63-.2h4.8c2.67,0,2.8.74,2.8,2.64q-.19,8.52,0,17c0,1.9.07,5.48.2,10.76s.2,9.33.2,12.18v12.08q0,6.6-.1,13.7t-.1,12v38.17c0,1.08,0,2.71-.1,4.87s-.1,3.72-.1,4.67c0,1.9-.47,3.05-2.07,3.19a16.16,16.16,0,0,1-2.5.17c-1.41,0-3,.09-3.84.09q-8.81-.19-24-.81a7.23,7.23,0,0,1-6.61-3.66q-10-16.63-15.41-25.58-.6-1-9-15.63c-.44-.75-.77-.59-.8.2-.27,8.94-.4,17.39-.4,17.93V185a19.85,19.85,0,0,1-.1,2,2.26,2.26,0,0,1-.6,1.32,2.13,2.13,0,0,1-1.2.61,17.28,17.28,0,0,1-1.9.1q-7.82.19-24,0c-.94,0-2.72,0-4.53.1-2,.07-3.24.07-3.91.07a2.93,2.93,0,0,1-1.94-.83c-.4-.33-.5-1.78-.63-3q-.6-11.35-.6-15-.21-10.35,0-37.15c0-25.71-.76-47.21-.63-64.4,0-1.08.07-2.6.2-4.56s.2-3.35.2-4.17a2,2,0,0,1,1.65-2.22,2,2,0,0,1,.55,0c15.75,0,27,.12,32.88.25,1.2,0,1.8.07,2.74,1.56,2,3,5.2,7.81,8.68,13.16s5.87,9,7.2,11.06C1354.43,84.48,1357.92,89.52,1363,96.32Z" fill="#fff"/><path d="M1425.16,188.59a126.17,126.17,0,0,1-.14-12.9c.25-12.23.4-16.45.53-17.4a3,3,0,0,1,.88-2.3c.47-.47,1.58-.23,2.78-.23.93,0,1.93,0,3,.1l3.2.2c1.06.06,2.07.1,3,.1,8.76,0,15.33.06,20.34-1.68a11.54,11.54,0,0,0,2.2-1,5.94,5.94,0,0,0,2.94-4.71c.27-1.89-1.09-5.17-2.83-6.66a58.83,58.83,0,0,0-9.18-6c-1.07-.54-3-2.07-5.64-3.68-2.34-1.44-5.34-3.9-6.54-4.58-10.21-8.91-16.12-15.13-17.15-25-1.37-13.12,0-20.85,6.44-31.13,5.47-8.94,14.7-13.57,24.45-16q10-2.44,26.43-1.22a196.29,196.29,0,0,1,20.62,3,13.79,13.79,0,0,1,1.8.41,2.05,2.05,0,0,1,1,.71,2.43,2.43,0,0,1,.5,1.12,13.74,13.74,0,0,1,.1,2q-.2,1.81-.8,17c-.26,5.41-.46,8.8-.6,10.15a9.32,9.32,0,0,1-.5,2.33,1.85,1.85,0,0,1-1.2,1,4.62,4.62,0,0,1-2.5-.1c-8.94-1.22-19.11-4.27-25.52-2.78-3.34.68-5.94,3.47-7.41,5.77-2.31,4.14,0,9.9,4.3,13.5a75.33,75.33,0,0,0,8,6.39c.4.27,2,1.29,4.7,3s4.78,3.12,6.11,4.06c10.81,8,16.37,16.21,17.17,27.44,1.07,17.87-3.73,31.66-18,38.26-6.27,3.65-13.7,4.28-23.66,4.84-4.13.24-12.84-.07-20.78-.54s-12.78-.78-14.52-.91S1425.44,190.33,1425.16,188.59Z" fill="#fff"/></svg>