<svg id="a9880a82-a296-4c76-b95d-59d8254451df" data-name="Layer 1" xmlns="http://www.w3.org/2000/svg" viewBox="0 0 202 202"><path d="M201,39a81.8,81.8,0,0,1-23.57,6.46,41.09,41.09,0,0,0,18-22.7,81.92,81.92,0,0,1-26.05,10A41.08,41.08,0,0,0,99.5,70.12,116.53,116.53,0,0,1,14.92,27.24,41.1,41.1,0,0,0,27.62,82,40.87,40.87,0,0,1,9,76.89c0,.17,0,.35,0,.52A41.06,41.06,0,0,0,42,117.64a41.25,41.25,0,0,1-18.53.71,41.06,41.06,0,0,0,38.33,28.49,82.31,82.31,0,0,1-51,17.57A83.29,83.29,0,0,1,1,163.83a116.09,116.09,0,0,0,62.9,18.44c75.47,0,116.74-62.52,116.74-116.75,0-1.78,0-3.55-.11-5.31A83.35,83.35,0,0,0,201,39Z" fill="#fff"/></svg>