<?xml version="1.0" standalone="no"?>
<!DOCTYPE svg PUBLIC "-//W3C//DTD SVG 20010904//EN"
 "http://www.w3.org/TR/2001/REC-SVG-20010904/DTD/svg10.dtd">
<svg version="1.0" xmlns="http://www.w3.org/2000/svg"
 width="410.000000pt" height="410.000000pt" viewBox="0 0 410.000000 410.000000"
 preserveAspectRatio="xMidYMid meet">
<metadata>
Created by potrace 1.14, written by Peter Selinger 2001-2017
</metadata>
<g transform="translate(0.000000,410.000000) scale(0.100000,-0.100000)"
fill="#000000" stroke="none">
<path d="M1671 3943 l-21 -18 35 -125 c58 -200 74 -240 99 -240 47 0 50 11 26
111 -34 146 -83 284 -101 287 -9 2 -26 -5 -38 -15z"/>
<path d="M2694 3879 c-24 -47 -101 -242 -118 -299 -15 -50 -15 -51 9 -62 13
-6 30 -8 37 -5 13 4 148 339 148 365 0 12 -31 32 -49 32 -6 0 -18 -14 -27 -31z"/>
<path d="M740 3453 c-25 -32 -37 -19 144 -157 132 -102 139 -106 157 -90 30
27 23 48 -33 96 -53 46 -234 178 -242 178 -2 0 -14 -12 -26 -27z"/>
<path d="M3360 3320 c-69 -76 -125 -147 -125 -156 0 -9 8 -22 18 -28 16 -10
33 4 129 104 61 63 122 130 136 148 24 31 24 33 7 52 -10 11 -23 20 -29 20 -7
0 -68 -63 -136 -140z"/>
<path d="M2016 3240 c-280 -44 -580 -221 -743 -438 -114 -151 -170 -285 -227
-540 -49 -219 -85 -328 -155 -466 -84 -165 -173 -293 -301 -431 -210 -226
-266 -347 -241 -517 20 -138 99 -251 209 -301 65 -29 196 -29 268 0 l51 20 6
-55 c12 -112 106 -235 224 -290 72 -33 177 -37 263 -9 77 26 203 91 269 140
33 25 56 36 59 29 12 -36 97 -134 153 -176 103 -78 180 -108 304 -121 209 -21
391 122 471 370 l26 80 82 -81 c94 -93 171 -136 280 -155 85 -14 152 -7 221
25 118 54 205 172 225 304 10 63 9 82 -9 151 -23 92 -66 194 -126 301 -99 176
-145 293 -165 420 -6 41 -15 239 -20 440 -9 388 -16 455 -65 616 -101 329
-359 578 -693 665 -89 23 -276 33 -366 19z m384 -70 c150 -43 311 -141 421
-257 191 -201 268 -451 269 -872 1 -86 5 -244 10 -351 13 -279 35 -354 178
-617 44 -81 93 -184 107 -228 72 -213 6 -402 -166 -479 -54 -25 -70 -28 -142
-24 -104 6 -171 32 -262 101 -66 51 -189 186 -178 197 3 3 17 -11 31 -30 14
-19 58 -67 98 -107 166 -163 366 -199 514 -92 44 32 103 116 96 136 -3 6 0 13
6 15 17 6 22 143 9 219 -7 38 -17 67 -22 64 -5 -4 -7 0 -4 7 3 7 -11 47 -31
88 -34 71 -132 249 -144 260 -3 3 -6 10 -7 15 -2 6 -18 56 -37 111 -56 162
-65 243 -67 614 -1 184 -4 240 -10 203 -12 -74 -44 -136 -90 -178 -32 -29 -47
-35 -82 -35 -94 0 -201 114 -242 259 -37 132 -36 214 5 298 53 108 132 151
213 115 62 -27 114 -77 148 -141 l30 -56 -6 40 c-12 75 -67 224 -112 300 -70
120 -272 319 -304 299 -7 -4 -9 -3 -6 3 9 15 -92 66 -202 103 -76 26 -111 32
-204 34 -114 4 -287 -18 -352 -45 -17 -7 -39 -14 -50 -16 -46 -8 -227 -106
-303 -163 -204 -155 -322 -340 -387 -609 -18 -75 -43 -179 -55 -231 -28 -117
-70 -240 -115 -332 -19 -39 -32 -76 -28 -82 3 -6 3 -8 -2 -4 -4 4 -36 -38 -71
-93 -60 -95 -163 -229 -198 -258 -9 -7 -13 -18 -9 -24 3 -5 2 -7 -4 -4 -11 7
-60 -48 -126 -140 -157 -217 -113 -516 88 -593 56 -22 197 -12 242 17 6 5 14
33 18 63 7 55 27 100 45 100 19 0 31 -51 24 -101 -5 -35 -3 -54 7 -66 10 -12
10 -15 1 -9 -10 6 -11 -2 -6 -36 25 -159 118 -271 250 -298 51 -11 148 -1 179
18 6 4 18 8 28 9 33 5 152 71 231 127 81 59 97 61 111 15 4 -11 11 -16 17 -13
6 4 8 2 5 -4 -10 -15 65 -105 126 -151 29 -22 86 -54 127 -72 62 -27 92 -33
168 -37 88 -4 96 -3 157 27 65 32 123 88 173 166 20 31 74 164 108 264 2 8 7
12 9 9 8 -7 -52 -173 -85 -238 -31 -60 -99 -146 -142 -180 -112 -87 -269 -87
-437 0 -90 47 -161 111 -216 193 -21 31 -41 57 -44 57 -4 0 -38 -23 -76 -51
-123 -89 -294 -159 -387 -159 -65 0 -134 28 -187 76 -97 87 -131 177 -131 347
0 133 -28 130 -45 -6 -7 -56 -7 -56 -53 -72 -168 -57 -309 -2 -378 147 -26 57
-29 73 -29 173 0 103 2 114 33 179 40 86 81 142 205 281 152 169 271 359 340
540 19 50 56 182 82 295 57 246 74 300 127 409 146 296 457 519 806 576 118
20 294 13 392 -15z m-735 -574 c57 -24 130 -100 161 -169 25 -53 29 -74 29
-152 0 -80 -4 -97 -31 -155 -57 -121 -137 -187 -238 -197 -110 -11 -209 55
-273 180 -30 61 -34 78 -34 146 0 42 6 98 15 125 8 27 12 54 9 59 -3 6 -1 7 5
3 14 -8 35 30 26 47 -4 6 -4 9 1 5 4 -4 30 13 57 38 26 25 67 54 91 64 50 23
134 26 182 6z m846 -612 c30 -15 97 -60 151 -100 53 -40 99 -70 104 -66 4 4 4
2 0 -5 -4 -7 1 -20 11 -30 74 -75 -44 -285 -205 -365 -37 -18 -69 -35 -72 -38
-8 -8 -47 -11 -160 -13 -118 -2 -172 11 -276 69 -82 45 -174 148 -174 194 0
17 49 85 118 164 34 39 58 74 55 79 -3 6 -2 7 4 4 5 -3 31 12 58 34 142 118
256 139 386 73z"/>
<path d="M2765 2590 c-29 -12 -70 -58 -97 -110 -19 -37 -23 -60 -23 -130 1
-96 15 -159 57 -242 95 -193 243 -222 322 -65 25 51 30 73 34 162 7 167 -38
279 -147 362 -44 34 -99 43 -146 23z m151 -55 c20 -15 48 -55 71 -102 37 -75
38 -80 38 -187 0 -132 -16 -195 -60 -242 -72 -76 -178 -19 -245 131 -69 153
-65 315 11 393 55 56 117 59 185 7z"/>
<path d="M2811 2403 c-29 -35 -35 -64 -28 -129 7 -65 42 -132 79 -154 32 -17
50 -10 82 34 27 36 29 155 3 203 -40 76 -98 95 -136 46z"/>
<path d="M1507 2586 c-83 -31 -149 -94 -190 -184 -18 -38 -22 -66 -22 -142 0
-82 4 -103 26 -151 52 -111 140 -173 244 -173 74 0 124 24 182 87 71 76 96
147 95 263 -2 122 -57 227 -147 280 -54 31 -135 40 -188 20z m161 -45 c94 -49
146 -143 146 -266 0 -67 -4 -90 -27 -140 -52 -111 -130 -169 -228 -169 -186 2
-305 246 -213 439 22 47 85 108 137 134 54 27 135 28 185 2z"/>
<path d="M1504 2411 c-84 -38 -119 -145 -75 -233 73 -148 255 -90 256 82 0
122 -86 193 -181 151z"/>
<path d="M2300 2001 c-74 -23 -141 -69 -230 -160 -52 -53 -113 -123 -134 -154
l-39 -57 19 -36 c106 -202 456 -283 673 -156 109 64 191 181 191 274 0 50 -2
54 -53 103 -67 63 -190 148 -252 175 -48 20 -127 25 -175 11z m177 -55 c105
-49 263 -173 263 -207 0 -11 -12 -13 -53 -11 -45 3 -76 -5 -188 -47 -74 -27
-162 -57 -196 -66 -103 -26 -297 -21 -338 9 -15 11 -9 22 53 102 85 110 145
163 236 209 86 44 146 46 223 11z m263 -269 c0 -67 -85 -164 -190 -215 -70
-33 -83 -36 -186 -40 -154 -6 -251 24 -351 105 -49 39 -56 57 -15 42 15 -6 74
-11 132 -11 120 0 200 20 385 96 86 36 122 46 168 46 53 0 57 -2 57 -23z"/>
<path d="M340 2641 c0 -5 -3 -16 -6 -24 -9 -25 33 -45 162 -76 157 -39 200
-44 219 -25 18 19 19 38 3 51 -17 13 -315 83 -350 83 -16 0 -28 -4 -28 -9z"/>
<path d="M3660 2638 c-63 -5 -135 -12 -160 -16 -42 -7 -45 -10 -45 -37 l0 -30
70 -3 c39 -2 122 2 185 8 121 11 144 22 138 65 -4 25 -27 26 -188 13z"/>
<path d="M3454 1885 c-4 -8 -1 -22 6 -30 17 -20 156 -102 208 -122 43 -16 45
-16 58 2 8 10 14 25 14 32 0 15 -232 133 -262 133 -10 0 -21 -7 -24 -15z"/>
<path d="M560 1739 c-30 -11 -94 -38 -142 -61 -72 -34 -88 -45 -88 -63 0 -46
20 -45 139 6 142 61 186 92 171 120 -13 23 -10 23 -80 -2z"/>
</g>
</svg>
